<?xml version="1.0" encoding="utf-8"?>
<svg xmlns="http://www.w3.org/2000/svg">
<symbol id="add" viewBox="0 0 24 24">
<path d="M24 13.7143H13.7143V24H10.2857V13.7143H0V10.2857H10.2857V0H13.7143V10.2857H24V13.7143Z"/>

</symbol>
<symbol id="arrow-back" viewBox="0 0 24 24">
<g clip-path="url(#clip0)">
<path d="M24 10.5H5.745L14.13 2.115L12 0L0 12L12 24L14.115 21.885L5.745 13.5H24V10.5Z"/>
</g>
<defs>
<clipPath id="clip0">
<rect width="24" height="24" fill="white"/>
</clipPath>
</defs>

</symbol>
<symbol id="arrow-forward" viewBox="0 0 24 24">
<g clip-path="url(#clip0)">
<path d="M12 0L9.885 2.115L18.255 10.5H0V13.5H18.255L9.885 21.885L12 24L24 12L12 0Z"/>
</g>
<defs>
<clipPath id="clip0">
<rect width="24" height="24" fill="white"/>
</clipPath>
</defs>

</symbol>
<symbol id="arrow-up" viewBox="0 0 32 32">
<title>arrow-up</title>
<path d="M27.414 12.586l-10-10c-0.781-0.781-2.047-0.781-2.828 0l-10 10c-0.781 0.781-0.781 2.047 0 2.828s2.047 0.781 2.828 0l6.586-6.586v19.172c0 1.105 0.895 2 2 2s2-0.895 2-2v-19.172l6.586 6.586c0.39 0.39 0.902 0.586 1.414 0.586s1.024-0.195 1.414-0.586c0.781-0.781 0.781-2.047 0-2.828z"/>

</symbol>
<symbol id="bold-arrow-up" viewBox="0 0 32 32">
<title>bold-arrow-up</title>
<path d="M16 1l-15 15h9v16h12v-16h9z"/>

</symbol>
<symbol id="calendar" viewBox="0 0 32 32">
<title>calendar</title>
<path d="M10 12h4v4h-4zM16 12h4v4h-4zM22 12h4v4h-4zM4 24h4v4h-4zM10 24h4v4h-4zM16 24h4v4h-4zM10 18h4v4h-4zM16 18h4v4h-4zM22 18h4v4h-4zM4 18h4v4h-4zM26 0v2h-4v-2h-14v2h-4v-2h-4v32h30v-32h-4zM28 30h-26v-22h26v22z"/>

</symbol>
<symbol id="check" viewBox="0 0 24 24">
<path d="M7.62706 17.4355L1.93746 11.7459L0 13.6697L7.62706 21.2968L24 4.92382L22.0762 3L7.62706 17.4355Z"/>

</symbol>
<symbol id="close" viewBox="0 0 24 24">
<g clip-path="url(#clip0)">
<path d="M24 2.41714L21.5829 0L12 9.58286L2.41714 0L0 2.41714L9.58286 12L0 21.5829L2.41714 24L12 14.4171L21.5829 24L24 21.5829L14.4171 12L24 2.41714Z"/>
</g>
<defs>
<clipPath id="clip0">
<rect width="24" height="24" fill="white"/>
</clipPath>
</defs>

</symbol>
<symbol id="delta-down" viewBox="0 0 24 24">
<path d="M1.61487 5H22.3851C23.822 5 24.5405 6.73556 23.5233 7.75269L13.1422 18.1419C12.5126 18.7715 11.4874 18.7715 10.8578 18.1419L0.476659 7.75269C-0.540462 6.73556 0.177981 5 1.61487 5Z"/>

</symbol>
<symbol id="delta-up" viewBox="0 0 24 24">
<path d="M22.3828 18.6107H1.61718C0.179299 18.6107 -0.540772 16.8722 0.475946 15.8555L10.8587 5.47269C11.489 4.84244 12.511 4.84244 13.1412 5.47269L23.524 15.8555C24.5408 16.8722 23.8207 18.6107 22.3828 18.6107Z"/>

</symbol>
<symbol id="download" viewBox="0 0 24 24">
<path d="M2 24H21.7647V21.1765H2V24ZM21.7647 8.47059H16.1176V0H7.64706V8.47059H2L11.8824 18.3529L21.7647 8.47059Z"/>

</symbol>
<symbol id="edit" viewBox="0 0 24 24">
<path d="M0 19.0007V24H4.99931L19.7439 9.25538L14.7446 4.25608L0 19.0007ZM23.6101 5.38925C24.13 4.86932 24.13 4.02944 23.6101 3.50951L20.4905 0.389946C19.9706 -0.129982 19.1307 -0.129982 18.6107 0.389946L16.1711 2.82961L21.1704 7.82891L23.6101 5.38925V5.38925Z"/>

</symbol>
<symbol id="ellipsis" viewBox="0 0 24 24">
<path d="M15.4839 12.4839C15.4839 14.4097 13.9258 15.9677 12 15.9677C10.0742 15.9677 8.51613 14.4097 8.51613 12.4839C8.51613 10.5581 10.0742 9 12 9C13.9258 9 15.4839 10.5581 15.4839 12.4839ZM20.5161 9C18.5903 9 17.0323 10.5581 17.0323 12.4839C17.0323 14.4097 18.5903 15.9677 20.5161 15.9677C22.4419 15.9677 24 14.4097 24 12.4839C24 10.5581 22.4419 9 20.5161 9ZM3.48387 9C1.55806 9 0 10.5581 0 12.4839C0 14.4097 1.55806 15.9677 3.48387 15.9677C5.40968 15.9677 6.96774 14.4097 6.96774 12.4839C6.96774 10.5581 5.40968 9 3.48387 9Z"/>

</symbol>
<symbol id="email" viewBox="0 0 24 24">
<path d="M21.6 2H2.4C1.08 2 0.012 3.08 0.012 4.4L0 18.8C0 20.12 1.08 21.2 2.4 21.2H21.6C22.92 21.2 24 20.12 24 18.8V4.4C24 3.08 22.92 2 21.6 2ZM21.6 6.8L12 12.8L2.4 6.8V4.4L12 10.4L21.6 4.4V6.8Z"/>

</symbol>
<symbol id="error" viewBox="0 0 24 24">
<path d="M10.8 15.6H13.2V18H10.8V15.6ZM10.8 6H13.2V13.2H10.8V6ZM11.988 0C5.364 0 0 5.376 0 12C0 18.624 5.364 24 11.988 24C18.624 24 24 18.624 24 12C24 5.376 18.624 0 11.988 0ZM12 21.6C6.696 21.6 2.4 17.304 2.4 12C2.4 6.696 6.696 2.4 12 2.4C17.304 2.4 21.6 6.696 21.6 12C21.6 17.304 17.304 21.6 12 21.6Z"/>

</symbol>
<symbol id="facebook" viewBox="0 0 24 24">
<path d="M17.5847 13.5L18.2513 9.15656H14.0836V6.33797C14.0836 5.14969 14.6658 3.99141 16.5324 3.99141H18.4271V0.293438C18.4271 0.293438 16.7077 0 15.0638 0C11.6316 0 9.38815 2.08031 9.38815 5.84625V9.15656H5.573V13.5H9.38815V24H14.0836V13.5H17.5847Z"/>

</symbol>
<symbol id="info" viewBox="0 0 24 24">
<path d="M12 0C5.376 0 0 5.376 0 12C0 18.624 5.376 24 12 24C18.624 24 24 18.624 24 12C24 5.376 18.624 0 12 0ZM13.2 18H10.8V10.8H13.2V18ZM13.2 8.4H10.8V6H13.2V8.4Z"/>

</symbol>
<symbol id="instagram" viewBox="0 0 24 24">
<g clip-path="url(#clip0)">
<path d="M11.9998 0C13.6248 0 14.6951 0.004 15.2106 0.012C15.7261 0.02 16.3043 0.0395 16.9453 0.0705C17.5863 0.1015 18.1371 0.164 18.5976 0.258C19.0581 0.352 19.4761 0.477 19.8516 0.633C20.2581 0.7895 20.6331 0.977 20.9766 1.1955C21.3201 1.414 21.6561 1.6875 21.9846 2.016C22.3131 2.3445 22.5866 2.6805 22.8051 3.024C23.0236 3.3675 23.2111 3.7425 23.3676 4.149C23.5241 4.524 23.6491 4.942 23.7426 5.403C23.8361 5.864 23.8986 6.41475 23.9301 7.05525C23.9616 7.69575 23.9811 8.274 23.9886 8.79C23.9961 9.306 24.0001 10.3762 24.0006 12.0007C24.0011 13.6252 23.9971 14.6955 23.9886 15.2115C23.9801 15.7275 23.9606 16.3057 23.9301 16.9462C23.8996 17.5868 23.8371 18.1375 23.7426 18.5985C23.6481 19.0595 23.5231 19.4775 23.3676 19.8525C23.2111 20.259 23.0236 20.634 22.8051 20.9775C22.5866 21.321 22.3131 21.657 21.9846 21.9855C21.6561 22.314 21.3201 22.5875 20.9766 22.806C20.6331 23.0245 20.2581 23.212 19.8516 23.3685C19.4766 23.525 19.0586 23.65 18.5976 23.7435C18.1366 23.837 17.5858 23.8995 16.9453 23.931C16.3048 23.9625 15.7266 23.982 15.2106 23.9895C14.6946 23.997 13.6243 24.001 11.9998 24.0015C10.3753 24.002 9.30507 23.998 8.78907 23.9895C8.27307 23.981 7.69482 23.9615 7.05432 23.931C6.41382 23.9005 5.86307 23.838 5.40207 23.7435C4.94107 23.649 4.52307 23.524 4.14807 23.3685C3.74157 23.212 3.36657 23.0245 3.02307 22.806C2.67957 22.5875 2.34356 22.314 2.01507 21.9855C1.68657 21.657 1.41307 21.321 1.19457 20.9775C0.976065 20.634 0.788565 20.259 0.632065 19.8525C0.475565 19.4775 0.350565 19.0595 0.257065 18.5985C0.163565 18.1375 0.101065 17.5868 0.0695651 16.9462C0.0380651 16.3057 0.0185651 15.7275 0.0110651 15.2115C0.0035651 14.6955 -0.000434896 13.6252 -0.000934896 12.0007C-0.0014349 10.3762 0.0025651 9.306 0.0110651 8.79C0.0195651 8.274 0.0390651 7.69575 0.0695651 7.05525C0.100065 6.41475 0.162565 5.864 0.257065 5.403C0.351565 4.942 0.476565 4.524 0.632065 4.149C0.788565 3.7425 0.976065 3.3675 1.19457 3.024C1.41307 2.6805 1.68657 2.3445 2.01507 2.016C2.34356 1.6875 2.67957 1.414 3.02307 1.1955C3.36657 0.977 3.74157 0.7895 4.14807 0.633C4.52307 0.4765 4.94107 0.3515 5.40207 0.258C5.86307 0.1645 6.41382 0.102 7.05432 0.0705C7.69482 0.039 8.27307 0.0195 8.78907 0.012C9.30507 0.0045 10.3753 0.0005 11.9998 0V0ZM11.9998 2.15625C10.3903 2.15625 9.33957 2.16025 8.84756 2.16825C8.35557 2.17625 7.78907 2.19575 7.14807 2.22675C6.57007 2.25825 6.10907 2.31675 5.76507 2.40225C5.42106 2.48775 5.13981 2.56975 4.92132 2.64825C4.63981 2.75775 4.39382 2.88275 4.18332 3.02325C3.97282 3.16375 3.75807 3.33575 3.53907 3.53925C3.33607 3.75825 3.16407 3.973 3.02307 4.1835C2.88207 4.394 2.75707 4.64 2.64807 4.9215C2.57007 5.1405 2.48807 5.42175 2.40207 5.76525C2.31607 6.10875 2.25757 6.56975 2.22657 7.14825C2.19507 7.78875 2.17557 8.35525 2.16807 8.84775C2.16057 9.34025 2.15656 10.391 2.15606 12C2.15557 13.609 2.15956 14.6597 2.16807 15.1522C2.17657 15.6447 2.19607 16.2113 2.22657 16.8517C2.25807 17.4298 2.31657 17.8907 2.40207 18.2347C2.48757 18.5788 2.56957 18.86 2.64807 19.0785C2.75757 19.36 2.88257 19.606 3.02307 19.8165C3.16357 20.027 3.33557 20.2418 3.53907 20.4608C3.75807 20.6637 3.97282 20.8358 4.18332 20.9767C4.39382 21.1178 4.63981 21.2428 4.92132 21.3517C5.14032 21.4298 5.42157 21.5118 5.76507 21.5978C6.10856 21.6838 6.56957 21.7423 7.14807 21.7733C7.78857 21.8048 8.35507 21.8242 8.84756 21.8317C9.34007 21.8392 10.3908 21.8433 11.9998 21.8438C13.6088 21.8442 14.6596 21.8403 15.1521 21.8317C15.6446 21.8232 16.2111 21.8038 16.8516 21.7733C17.4296 21.7418 17.8906 21.6833 18.2346 21.5978C18.5786 21.5123 18.8598 21.4303 19.0783 21.3517C19.3598 21.2423 19.6058 21.1173 19.8163 20.9767C20.0268 20.8363 20.2416 20.6642 20.4606 20.4608C20.6636 20.2418 20.8356 20.027 20.9766 19.8165C21.1176 19.606 21.2426 19.36 21.3516 19.0785C21.4296 18.8595 21.5116 18.5782 21.5976 18.2347C21.6836 17.8913 21.7421 17.4303 21.7731 16.8517C21.8046 16.2113 21.8241 15.6447 21.8316 15.1522C21.8391 14.6597 21.8431 13.609 21.8436 12C21.8441 10.391 21.8401 9.34025 21.8316 8.84775C21.8231 8.35525 21.8036 7.78875 21.7731 7.14825C21.7416 6.57025 21.6831 6.10925 21.5976 5.76525C21.5121 5.42125 21.4301 5.14 21.3516 4.9215C21.2421 4.64 21.1171 4.394 20.9766 4.1835C20.8361 3.973 20.6641 3.75825 20.4606 3.53925C20.2416 3.33625 20.0268 3.16425 19.8163 3.02325C19.6058 2.88225 19.3598 2.75725 19.0783 2.64825C18.8593 2.57025 18.5781 2.48825 18.2346 2.40225C17.8911 2.31625 17.4301 2.25775 16.8516 2.22675C16.2111 2.19525 15.6446 2.17575 15.1521 2.16825C14.6596 2.16075 13.6088 2.15675 11.9998 2.15625ZM11.9998 5.83575C12.8438 5.83575 13.6408 5.99975 14.3908 6.32775C15.1408 6.64025 15.7971 7.07775 16.3596 7.64025C16.9221 8.20275 17.3596 8.859 17.6721 9.609C18.0001 10.359 18.1641 11.156 18.1641 12C18.1641 12.844 18.0001 13.641 17.6721 14.391C17.3596 15.141 16.9221 15.7972 16.3596 16.3597C15.7971 16.9222 15.1408 17.3598 14.3908 17.6722C13.6408 18.0002 12.8438 18.1642 11.9998 18.1642C11.1558 18.1642 10.3588 18.0002 9.60882 17.6722C8.85882 17.3598 8.20257 16.9222 7.64007 16.3597C7.07757 15.7972 6.64007 15.141 6.32757 14.391C5.99957 13.641 5.83557 12.844 5.83557 12C5.83557 11.156 5.99957 10.359 6.32757 9.609C6.64007 8.859 7.07757 8.20275 7.64007 7.64025C8.20257 7.07775 8.85882 6.64025 9.60882 6.32775C10.3588 5.99975 11.1558 5.83575 11.9998 5.83575ZM11.9998 16.008C13.1093 16.008 14.0546 15.6173 14.8356 14.8358C15.6166 14.0542 16.0073 13.109 16.0078 12C16.0083 10.891 15.6176 9.94575 14.8356 9.16425C14.0536 8.38275 13.1083 7.992 11.9998 7.992C10.8913 7.992 9.94606 8.38275 9.16407 9.16425C8.38206 9.94575 7.99132 10.891 7.99182 12C7.99232 13.109 8.38307 14.0542 9.16407 14.8358C9.94507 15.6173 10.8903 16.008 11.9998 16.008ZM19.8516 5.60175C19.8516 5.99225 19.7108 6.32825 19.4293 6.60975C19.1478 6.89125 18.8041 7.032 18.3981 7.032C18.0076 7.032 17.6716 6.89125 17.3901 6.60975C17.1086 6.32825 16.9678 5.99225 16.9678 5.60175C16.9678 5.19525 17.1086 4.8515 17.3901 4.5705C17.6716 4.2895 18.0076 4.14875 18.3981 4.14825C18.8046 4.14825 19.1483 4.289 19.4293 4.5705C19.7103 4.852 19.8511 5.19575 19.8516 5.60175Z"/>
</g>
<defs>
<clipPath id="clip0">
<rect width="24" height="24" fill="white"/>
</clipPath>
</defs>

</symbol>
<symbol id="keyboard-arrow-down" viewBox="0 0 24 24">
<path d="M2.82 5L12 14.16L21.18 5L24 7.82L12 19.82L0 7.82L2.82 5Z"/>

</symbol>
<symbol id="keyboard-arrow-left" viewBox="0 0 24 24">
<path d="M19 21.18L9.84 12L19 2.82L16.18 0L4.18 12L16.18 24L19 21.18Z"/>

</symbol>
<symbol id="keyboard-arrow-right" viewBox="0 0 24 24">
<path d="M5 21.18L14.16 12L5 2.82L7.82 0L19.82 12L7.82 24L5 21.18Z"/>

</symbol>
<symbol id="keyboard-arrow-up" viewBox="0 0 24 24">
<path d="M2.82 19.82L12 10.66L21.18 19.82L24 17L12 5.00001L0 17L2.82 19.82Z"/>

</symbol>
<symbol id="language" viewBox="0 0 24 24">
<path d="M11.988 0C5.364 0 0 5.376 0 12C0 18.624 5.364 24 11.988 24C18.624 24 24 18.624 24 12C24 5.376 18.624 0 11.988 0ZM20.304 7.2H16.764C16.38 5.7 15.828 4.26 15.108 2.928C17.316 3.684 19.152 5.22 20.304 7.2ZM12 2.448C12.996 3.888 13.776 5.484 14.292 7.2H9.708C10.224 5.484 11.004 3.888 12 2.448ZM2.712 14.4C2.52 13.632 2.4 12.828 2.4 12C2.4 11.172 2.52 10.368 2.712 9.6H6.768C6.672 10.392 6.6 11.184 6.6 12C6.6 12.816 6.672 13.608 6.768 14.4H2.712ZM3.696 16.8H7.236C7.62 18.3 8.172 19.74 8.892 21.072C6.684 20.316 4.848 18.792 3.696 16.8ZM7.236 7.2H3.696C4.848 5.208 6.684 3.684 8.892 2.928C8.172 4.26 7.62 5.7 7.236 7.2ZM12 21.552C11.004 20.112 10.224 18.516 9.708 16.8H14.292C13.776 18.516 12.996 20.112 12 21.552ZM14.808 14.4H9.192C9.084 13.608 9 12.816 9 12C9 11.184 9.084 10.38 9.192 9.6H14.808C14.916 10.38 15 11.184 15 12C15 12.816 14.916 13.608 14.808 14.4ZM15.108 21.072C15.828 19.74 16.38 18.3 16.764 16.8H20.304C19.152 18.78 17.316 20.316 15.108 21.072ZM17.232 14.4C17.328 13.608 17.4 12.816 17.4 12C17.4 11.184 17.328 10.392 17.232 9.6H21.288C21.48 10.368 21.6 11.172 21.6 12C21.6 12.828 21.48 13.632 21.288 14.4H17.232Z"/>

</symbol>
<symbol id="linkedin" viewBox="0 0 24 24">
<path d="M5.37214 23.9999H0.396429V7.97672H5.37214V23.9999ZM2.88161 5.79101C1.29054 5.79101 0 4.47315 0 2.88208C1.13882e-08 2.11783 0.303597 1.38488 0.844003 0.844476C1.38441 0.30407 2.11736 0.000473022 2.88161 0.000473022C3.64586 0.000473022 4.3788 0.30407 4.91921 0.844476C5.45962 1.38488 5.76321 2.11783 5.76321 2.88208C5.76321 4.47315 4.47214 5.79101 2.88161 5.79101ZM23.9946 23.9999H19.0296V16.1999C19.0296 14.341 18.9921 11.9571 16.4427 11.9571C13.8557 11.9571 13.4593 13.9767 13.4593 16.066V23.9999H8.48893V7.97672H13.2611V10.1624H13.3307C13.995 8.90351 15.6177 7.57494 18.0386 7.57494C23.0743 7.57494 24 10.891 24 15.1982V23.9999H23.9946Z"/>

</symbol>
<symbol id="location-on" viewBox="0 0 24 24">
<path d="M12.4 0C7.756 0 4 3.756 4 8.4C4 14.7 12.4 24 12.4 24C12.4 24 20.8 14.7 20.8 8.4C20.8 3.756 17.044 0 12.4 0ZM12.4 11.4C10.744 11.4 9.4 10.056 9.4 8.4C9.4 6.744 10.744 5.4 12.4 5.4C14.056 5.4 15.4 6.744 15.4 8.4C15.4 10.056 14.056 11.4 12.4 11.4Z"/>

</symbol>
<symbol id="menu" viewBox="0 0 24 24">
<path d="M0 20H24V17.3333H0V20ZM0 13.3333H24V10.6667H0V13.3333ZM0 4V6.66667H24V4H0Z"/>

</symbol>
<symbol id="minus" viewBox="0 0 16 16">
<path d="M0 6.5v3c0 0.276 0.224 0.5 0.5 0.5h15c0.276 0 0.5-0.224 0.5-0.5v-3c0-0.276-0.224-0.5-0.5-0.5h-15c-0.276 0-0.5 0.224-0.5 0.5z"/>

</symbol>
<symbol id="notifications" viewBox="0 0 24 24">
<path d="M11.8462 24C13.2 24 14.3077 22.8923 14.3077 21.5385H9.38462C9.38462 22.8923 10.48 24 11.8462 24ZM19.2308 16.6154V10.4615C19.2308 6.68308 17.2123 3.52 13.6923 2.68308V1.84615C13.6923 0.824615 12.8677 0 11.8462 0C10.8246 0 10 0.824615 10 1.84615V2.68308C6.46769 3.52 4.46154 6.67077 4.46154 10.4615V16.6154L2 19.0769V20.3077H21.6923V19.0769L19.2308 16.6154Z"/>

</symbol>
<symbol id="open" viewBox="0 0 24 24">
<path d="M9.81818 8.72727H14.1818V5.45455H17.4545L12 0L6.54545 5.45455H9.81818V8.72727ZM8.72727 9.81818H5.45455V6.54545L0 12L5.45455 17.4545V14.1818H8.72727V9.81818ZM24 12L18.5455 6.54545V9.81818H15.2727V14.1818H18.5455V17.4545L24 12ZM14.1818 15.2727H9.81818V18.5455H6.54545L12 24L17.4545 18.5455H14.1818V15.2727Z"/>

</symbol>
<symbol id="pause" viewBox="0 0 24 24">
<path d="M1 24H7.85714V0H1V24ZM14.7143 0V24H21.5714V0H14.7143Z"/>

</symbol>
<symbol id="person" viewBox="0 0 24 24">
<path d="M12 12C15.315 12 18 9.315 18 6C18 2.685 15.315 0 12 0C8.685 0 6 2.685 6 6C6 9.315 8.685 12 12 12ZM12 15C7.995 15 0 17.01 0 21V24H24V21C24 17.01 16.005 15 12 15Z"/>

</symbol>
<symbol id="pinterest" viewBox="0 0 24 24">
<path d="M12.5625 0.304688C7.75313 0.304688 3 3.51094 3 8.7C3 12 4.85625 13.875 5.98125 13.875C6.44531 13.875 6.7125 12.5813 6.7125 12.2156C6.7125 11.7797 5.60156 10.8516 5.60156 9.0375C5.60156 5.26875 8.47031 2.59688 12.1828 2.59688C15.375 2.59688 17.7375 4.41094 17.7375 7.74375C17.7375 10.2328 16.7391 14.9016 13.5047 14.9016C12.3375 14.9016 11.3391 14.0578 11.3391 12.8484C11.3391 11.0766 12.5766 9.36094 12.5766 7.53281C12.5766 4.42969 8.175 4.99219 8.175 8.74219C8.175 9.52969 8.27344 10.4016 8.625 11.1188C7.97813 13.9031 6.65625 18.0516 6.65625 20.9203C6.65625 21.8063 6.78281 22.6781 6.86719 23.5641C7.02656 23.7422 6.94688 23.7234 7.19063 23.6344C9.55313 20.4 9.46875 19.7672 10.5375 15.5344C11.1141 16.6313 12.6047 17.2219 13.7859 17.2219C18.7641 17.2219 21 12.3703 21 7.99688C21 3.34219 16.9781 0.304688 12.5625 0.304688Z"/>

</symbol>
<symbol id="play-arrow" viewBox="0 0 24 24">
<path d="M3 0V24L21.8571 12L3 0Z"/>

</symbol>
<symbol id="play-circle-outline" viewBox="0 0 24 24">
<g clip-path="url(#clip0)">
<path d="M9.6 17.4L16.8 12L9.6 6.6V17.4ZM12 0C5.376 0 0 5.376 0 12C0 18.624 5.376 24 12 24C18.624 24 24 18.624 24 12C24 5.376 18.624 0 12 0ZM12 21.6C6.708 21.6 2.4 17.292 2.4 12C2.4 6.708 6.708 2.4 12 2.4C17.292 2.4 21.6 6.708 21.6 12C21.6 17.292 17.292 21.6 12 21.6Z"/>
</g>
<defs>
<clipPath id="clip0">
<rect width="24" height="24" fill="white"/>
</clipPath>
</defs>

</symbol>
<symbol id="replay" viewBox="0 0 24 24">
<path d="M11.6 4.8V0L5.6 6L11.6 12V7.2C15.572 7.2 18.8 10.428 18.8 14.4C18.8 18.372 15.572 21.6 11.6 21.6C7.628 21.6 4.4 18.372 4.4 14.4H2C2 19.704 6.296 24 11.6 24C16.904 24 21.2 19.704 21.2 14.4C21.2 9.096 16.904 4.8 11.6 4.8Z"/>

</symbol>
<symbol id="rss-feed" viewBox="0 0 24 24">
<path d="M6.18 20C7.38398 20 8.36 19.024 8.36 17.82C8.36 16.616 7.38398 15.64 6.18 15.64C4.97602 15.64 4 16.616 4 17.82C4 19.024 4.97602 20 6.18 20Z"/>
<path d="M4 4.44V7.27C11.03 7.27 16.73 12.97 16.73 20H19.56C19.56 11.41 12.59 4.44 4 4.44ZM4 10.1V12.93C7.9 12.93 11.07 16.1 11.07 20H13.9C13.9 14.53 9.47 10.1 4 10.1Z"/>

</symbol>
<symbol id="search" viewBox="0 0 24 24">
<g clip-path="url(#clip0)">
<path d="M17.1527 15.0943H16.0686L15.6844 14.7238C17.0292 13.1595 17.8388 11.1286 17.8388 8.91938C17.8388 3.99314 13.8456 0 8.91938 0C3.99314 0 0 3.99314 0 8.91938C0 13.8456 3.99314 17.8388 8.91938 17.8388C11.1286 17.8388 13.1595 17.0292 14.7238 15.6844L15.0943 16.0686V17.1527L21.9554 24L24 21.9554L17.1527 15.0943ZM8.91938 15.0943C5.50257 15.0943 2.74443 12.3362 2.74443 8.91938C2.74443 5.50257 5.50257 2.74443 8.91938 2.74443C12.3362 2.74443 15.0943 5.50257 15.0943 8.91938C15.0943 12.3362 12.3362 15.0943 8.91938 15.0943Z"/>
</g>
<defs>
<clipPath id="clip0">
<rect width="24" height="24" fill="white"/>
</clipPath>
</defs>

</symbol>
<symbol id="spinner" viewBox="0 0 32 32">
<title>spinner8</title>
<path d="M16 32c-4.274 0-8.292-1.664-11.314-4.686s-4.686-7.040-4.686-11.314c0-3.026 0.849-5.973 2.456-8.522 1.563-2.478 3.771-4.48 6.386-5.791l1.344 2.682c-2.126 1.065-3.922 2.693-5.192 4.708-1.305 2.069-1.994 4.462-1.994 6.922 0 7.168 5.832 13 13 13s13-5.832 13-13c0-2.459-0.69-4.853-1.994-6.922-1.271-2.015-3.066-3.643-5.192-4.708l1.344-2.682c2.615 1.31 4.824 3.313 6.386 5.791 1.607 2.549 2.456 5.495 2.456 8.522 0 4.274-1.664 8.292-4.686 11.314s-7.040 4.686-11.314 4.686z"/>

</symbol>
<symbol id="square" viewBox="0 0 24 24">
<path d="M18.2857 4H5.71429C4.76786 4 4 4.76786 4 5.71429V18.2857C4 19.2321 4.76786 20 5.71429 20H18.2857C19.2321 20 20 19.2321 20 18.2857V5.71429C20 4.76786 19.2321 4 18.2857 4Z"/>

</symbol>
<symbol id="swap" viewBox="0 0 24 24">
<path d="M17.6667 18.68V9.33333H15V18.68H11L16.3333 24L21.6667 18.68H17.6667ZM8.33333 0L3 5.32H7V14.6667H9.66667V5.32H13.6667L8.33333 0Z"/>

</symbol>
<symbol id="thumb-up" viewBox="0 0 24 24">
<path d="M0 22.8182H4.36364V9.72727H0V22.8182ZM24 10.8182C24 9.61818 23.0182 8.63636 21.8182 8.63636H14.9345L15.9709 3.65091L16.0036 3.30182C16.0036 2.85455 15.8182 2.44 15.5236 2.14545L14.3673 1L7.18909 8.18909C6.78545 8.58182 6.54545 9.12727 6.54545 9.72727V20.6364C6.54545 21.8364 7.52727 22.8182 8.72727 22.8182H18.5455C19.4509 22.8182 20.2255 22.2727 20.5527 21.4873L23.8473 13.7964C23.9455 13.5455 24 13.2836 24 13V10.8182Z"/>

</symbol>
<symbol id="trending-flat" viewBox="0 0 24 24">
<path d="M24 12.0526L18.9474 7V10.7895H0V13.3158H18.9474V17.1053L24 12.0526Z"/>

</symbol>
<symbol id="trending-up" viewBox="0 0 24 24">
<path d="M16.8 5L19.548 7.748L13.692 13.604L8.892 8.804L0 17.708L1.692 19.4L8.892 12.2L13.692 17L21.252 9.452L24 12.2V5H16.8Z"/>

</symbol>
<symbol id="twitter" viewBox="0 0 24 24">
<path d="M21.533 7.11169C21.5482 7.32488 21.5482 7.53811 21.5482 7.7513C21.5482 14.2538 16.599 21.7462 7.5533 21.7462C4.76648 21.7462 2.17767 20.9391 0 19.5381C0.395953 19.5838 0.776625 19.599 1.18781 19.599C3.48727 19.599 5.60405 18.8224 7.29441 17.4975C5.13197 17.4518 3.31978 16.0356 2.69541 14.0863C3 14.132 3.30455 14.1624 3.62437 14.1624C4.06598 14.1624 4.50764 14.1015 4.91878 13.995C2.66498 13.5381 0.974578 11.5584 0.974578 9.16753V9.10664C1.62937 9.47213 2.39086 9.70055 3.19791 9.73097C1.87303 8.8477 1.00505 7.34011 1.00505 5.63452C1.00505 4.72083 1.24866 3.88327 1.67508 3.1523C4.09641 6.13706 7.73602 8.08627 11.8172 8.2995C11.7411 7.93402 11.6954 7.55335 11.6954 7.17263C11.6954 4.46194 13.8883 2.25385 16.6141 2.25385C18.0304 2.25385 19.3095 2.84775 20.208 3.80714C21.3197 3.59395 22.3857 3.18277 23.3299 2.61933C22.9643 3.76149 22.1877 4.72088 21.1674 5.32997C22.1573 5.22342 23.1167 4.94925 23.9999 4.56858C23.33 5.54316 22.4924 6.41114 21.533 7.11169Z"/>

</symbol></svg>