<?xml version="1.0" encoding="utf-8"?>
<!-- Generator: Adobe Illustrator 18.1.0, SVG Export Plug-In . SVG Version: 6.00 Build 0)  -->
<!DOCTYPE svg PUBLIC "-//W3C//DTD SVG 1.1//EN" "http://www.w3.org/Graphics/SVG/1.1/DTD/svg11.dtd">
<svg version="1.1" id="Layer_1" xmlns="http://www.w3.org/2000/svg" xmlns:xlink="http://www.w3.org/1999/xlink" x="0px" y="0px"
	 width="1478.7px" height="255px" viewBox="139 173 1478.7 255" enable-background="new 139 173 1478.7 255" xml:space="preserve">
<g id="Layer_5">
	<g>
		<circle fill="none" stroke="#110000" stroke-width="11" stroke-miterlimit="10" cx="779.6" cy="235.2" r="29.3"/>
		<circle fill="#BE6700" cx="779.6" cy="235.2" r="16.9"/>
		<circle fill="none" stroke="#110000" stroke-width="11" stroke-miterlimit="10" cx="842.5" cy="235.2" r="29.3"/>
		<circle fill="#BE6700" cx="842.5" cy="235.2" r="16.9"/>
		<circle fill="none" stroke="#110000" stroke-width="11" stroke-miterlimit="10" cx="905.5" cy="235.2" r="29.3"/>
		<circle fill="#BE6700" cx="905.5" cy="235.2" r="16.9"/>
		<circle fill="none" stroke="#110000" stroke-width="11" stroke-miterlimit="10" cx="969.2" cy="235.2" r="29.3"/>
		<circle fill="#BE6700" cx="969.2" cy="235.2" r="16.9"/>
		<circle fill="none" stroke="#110000" stroke-width="11" stroke-miterlimit="10" cx="779.6" cy="298.2" r="29.3"/>
		<circle fill="#BE6700" cx="779.6" cy="298.2" r="16.9"/>
		<circle fill="none" stroke="#110000" stroke-width="11" stroke-miterlimit="10" cx="842.5" cy="298.2" r="29.3"/>
		<circle fill="#BE6700" cx="842.5" cy="298.2" r="16.9"/>
		<circle fill="none" stroke="#110000" stroke-width="11" stroke-miterlimit="10" cx="905.5" cy="298.2" r="29.3"/>
		<circle fill="#BE6700" cx="905.5" cy="298.2" r="16.9"/>
		<circle fill="none" stroke="#110000" stroke-width="11" stroke-miterlimit="10" cx="969.2" cy="298.2" r="29.3"/>
		<circle fill="#BE6700" cx="969.2" cy="298.2" r="16.9"/>
		<circle fill="none" stroke="#110000" stroke-width="11" stroke-miterlimit="10" cx="779.6" cy="361.1" r="29.3"/>
		<circle fill="#BE6700" cx="779.6" cy="361.1" r="16.9"/>
		<circle fill="none" stroke="#110000" stroke-width="11" stroke-miterlimit="10" cx="842.5" cy="361.1" r="29.3"/>
		<circle fill="#BE6700" cx="842.5" cy="361.1" r="16.9"/>
		<circle fill="none" stroke="#110000" stroke-width="11" stroke-miterlimit="10" cx="905.5" cy="361.1" r="29.3"/>
		<circle fill="#BE6700" cx="905.5" cy="361.1" r="16.9"/>
		<circle fill="none" stroke="#110000" stroke-width="11" stroke-miterlimit="10" cx="969.2" cy="361.1" r="29.3"/>
		<circle fill="#BE6700" cx="969.2" cy="361.1" r="16.9"/>
		<circle fill="#BE6700" cx="810.7" cy="235.2" r="8.1"/>
		<circle fill="#BE6700" cx="779.6" cy="266.8" r="8.1"/>
		<circle fill="#BE6700" cx="844" cy="266.8" r="8.1"/>
		<circle fill="#BE6700" cx="906.2" cy="266.8" r="8.1"/>
		<circle fill="#BE6700" cx="969.2" cy="266.8" r="8.1"/>
		<circle fill="#BE6700" cx="779.6" cy="329.7" r="8.1"/>
		<circle fill="#BE6700" cx="844" cy="329.7" r="8.1"/>
		<circle fill="#BE6700" cx="906.2" cy="329.7" r="8.1"/>
		<circle fill="#BE6700" cx="969.2" cy="329.7" r="8.1"/>
		<circle fill="#BE6700" cx="873.6" cy="235.2" r="8.1"/>
		<circle fill="#BE6700" cx="937.3" cy="235.2" r="8.1"/>
		<circle fill="#BE6700" cx="810.7" cy="296.7" r="8.1"/>
		<circle fill="#BE6700" cx="873.6" cy="296.7" r="8.1"/>
		<circle fill="#BE6700" cx="937.3" cy="296.7" r="8.1"/>
		<circle fill="#BE6700" cx="810.7" cy="359.6" r="8.1"/>
		<circle fill="#BE6700" cx="873.6" cy="359.6" r="8.1"/>
		<circle fill="#BE6700" cx="937.3" cy="359.6" r="8.1"/>
	</g>
</g>
<g id="atom">
	<g>
		<g>
			<circle fill="none" stroke="#000000" stroke-width="15" stroke-miterlimit="10" cx="240.3" cy="298.6" r="91.6"/>
			<circle fill="#BE6700" cx="240.3" cy="298.6" r="52.8"/>
		</g>
		<path fill="#BE6700" d="M334.9,241.8c0,12.4-10,22.4-22.4,22.4s-22.4-10-22.4-22.4s10-22.4,22.4-22.4
			C324.8,219.4,334.9,229.4,334.9,241.8z"/>
	</g>
</g>
<g id="Layer_2" display="none">
</g>
<g id="Layer_4" display="none">
</g>
<g id="Layer_3" display="none">
	<g display="inline">
		<g>
			<circle fill="none" stroke="#000000" stroke-width="15" stroke-miterlimit="10" cx="-257.4" cy="529.9" r="58.2"/>
			<circle fill="#ABABAB" cx="-257.4" cy="529.9" r="33.5"/>
		</g>
		<g>
			<circle fill="none" stroke="#000000" stroke-width="15" stroke-miterlimit="10" cx="-191.9" cy="416.9" r="58.2"/>
			<circle fill="#ABABAB" cx="-191.9" cy="416.9" r="33.5"/>
		</g>
		<g>
			<circle fill="none" stroke="#000000" stroke-width="15" stroke-miterlimit="10" cx="-126.1" cy="529.9" r="58.2"/>
			<circle fill="#ABABAB" cx="-126.1" cy="529.9" r="33.5"/>
		</g>
		<circle fill="#ABABAB" cx="-228.4" cy="484.1" r="14.3"/>
		<circle fill="#ABABAB" cx="-200" cy="530.9" r="14.3"/>
		<circle fill="#ABABAB" cx="-184.4" cy="530.9" r="14.3"/>
		<circle fill="#ABABAB" cx="-153.4" cy="483.5" r="14.3"/>
		<circle fill="#ABABAB" cx="-220.3" cy="465.8" r="14.3"/>
		<circle fill="#ABABAB" cx="-159.6" cy="466.8" r="14.3"/>
	</g>
</g>
<g id="template">
	<g>
		<g>
			<g>
				<polyline fill="none" stroke="#110000" stroke-width="9" stroke-miterlimit="10" points="1296.7,182 1296.7,176 1290.7,176 				
					"/>
				
					<line fill="none" stroke="#110000" stroke-width="9" stroke-miterlimit="10" stroke-dasharray="11.5716,11.5716" x1="1279.1" y1="176" x2="1146.1" y2="176"/>
				<polyline fill="none" stroke="#110000" stroke-width="9" stroke-miterlimit="10" points="1140.3,176 1134.3,176 1134.3,182 				
					"/>
				
					<line fill="none" stroke="#110000" stroke-width="9" stroke-miterlimit="10" stroke-dasharray="6.3774,6.3774" x1="1134.3" y1="188.4" x2="1134.3" y2="197.9"/>
				<polyline fill="none" stroke="#110000" stroke-width="9" stroke-miterlimit="10" points="1134.3,201.1 1134.3,207.1 
					1140.3,207.1 				"/>
				
					<line fill="none" stroke="#110000" stroke-width="9" stroke-miterlimit="10" stroke-dasharray="13.105,13.105" x1="1153.4" y1="207.1" x2="1251.7" y2="207.1"/>
				<polyline fill="none" stroke="#110000" stroke-width="9" stroke-miterlimit="10" points="1258.2,207.1 1264.2,207.1 
					1264.2,213.1 				"/>
				
					<line fill="none" stroke="#110000" stroke-width="9" stroke-miterlimit="10" stroke-dasharray="11.3823,11.3823" x1="1264.2" y1="224.5" x2="1264.2" y2="378.2"/>
				<polyline fill="none" stroke="#110000" stroke-width="9" stroke-miterlimit="10" points="1264.2,383.9 1264.2,389.9 
					1270.2,389.9 				"/>
				
					<line fill="none" stroke="#110000" stroke-width="9" stroke-miterlimit="10" stroke-dasharray="6.8286,6.8286" x1="1277.1" y1="389.9" x2="1287.3" y2="389.9"/>
				<polyline fill="none" stroke="#110000" stroke-width="9" stroke-miterlimit="10" points="1291.7,389.9 1296.7,389.9 
					1296.7,384.9 				"/>
				
					<line fill="none" stroke="#110000" stroke-width="9" stroke-miterlimit="10" stroke-dasharray="11.8745,11.8745" x1="1296.7" y1="372" x2="1296.7" y2="187.9"/>
			</g>
		</g>
		<g>
			<g>
				<polyline fill="none" stroke="#110000" stroke-width="9" stroke-miterlimit="10" points="1134.3,211.4 1134.3,207.1 
					1128.3,207.1 				"/>
				
					<line fill="none" stroke="#110000" stroke-width="9" stroke-miterlimit="10" stroke-dasharray="6.8288,6.8288" x1="1121.5" y1="207.1" x2="1111.2" y2="207.1"/>
				<polyline fill="none" stroke="#110000" stroke-width="9" stroke-miterlimit="10" points="1107.8,207.1 1101.8,207.1 
					1101.8,213.1 				"/>
				
					<line fill="none" stroke="#110000" stroke-width="9" stroke-miterlimit="10" stroke-dasharray="11.8746,11.8746" x1="1101.8" y1="225" x2="1101.8" y2="409.1"/>
				<polyline fill="none" stroke="#110000" stroke-width="9" stroke-miterlimit="10" points="1101.8,415 1101.8,421 1107.8,421 				
					"/>
				
					<line fill="none" stroke="#110000" stroke-width="9" stroke-miterlimit="10" stroke-dasharray="11.5716,11.5716" x1="1119.4" y1="421" x2="1252.4" y2="421"/>
				<polyline fill="none" stroke="#110000" stroke-width="9" stroke-miterlimit="10" points="1258.2,421 1264.2,421 1264.2,415 				
					"/>
				
					<line fill="none" stroke="#110000" stroke-width="9" stroke-miterlimit="10" stroke-dasharray="6.3776,6.3776" x1="1264.2" y1="408.6" x2="1264.2" y2="399.1"/>
				<polyline fill="none" stroke="#110000" stroke-width="9" stroke-miterlimit="10" points="1264.2,395.9 1264.2,389.9 
					1260.8,389.9 				"/>
			</g>
		</g>
	</g>
</g>
<g id="page">
	<g>
		<polygon fill="none" stroke="#110000" stroke-width="8" stroke-miterlimit="10" points="1607.4,176 1439.6,176 1439.6,200.5 
			1535.4,200.5 1583,246.6 1583,397 1607.4,397 		"/>
		<polyline fill="none" stroke="#110000" stroke-width="8" stroke-miterlimit="10" points="1536.1,200.5 1415.1,200.5 1415.1,421.5 
			1583,421.5 1583,252.9 		"/>
		<polygon fill="none" stroke="#110000" stroke-width="8" stroke-miterlimit="10" points="1537.9,206.9 1538,247 1577.6,247.2 		"/>
	</g>
</g>
<g id="Layer_3_1_">
	<g>
		<g>
			<circle fill="none" stroke="#110000" stroke-width="15" stroke-miterlimit="10" cx="480" cy="346.3" r="49.3"/>
			<circle fill="#BE6700" cx="480" cy="346.3" r="28.4"/>
		</g>
		<g>
			<circle fill="none" stroke="#110000" stroke-width="15" stroke-miterlimit="10" cx="535.5" cy="250.5" r="49.3"/>
			<circle fill="#BE6700" cx="535.5" cy="250.5" r="28.4"/>
		</g>
		<g>
			<circle fill="none" stroke="#110000" stroke-width="15" stroke-miterlimit="10" cx="591.3" cy="346.3" r="49.3"/>
			<circle fill="#BE6700" cx="591.3" cy="346.3" r="28.4"/>
		</g>
		<circle fill="#BE6700" cx="504.6" cy="307.5" r="12.1"/>
		<circle fill="#BE6700" cx="528.6" cy="347.1" r="12.1"/>
		<circle fill="#BE6700" cx="541.9" cy="347.1" r="12.1"/>
		<circle fill="#BE6700" cx="568.1" cy="307" r="12.1"/>
		<circle fill="#BE6700" cx="511.4" cy="292" r="12.1"/>
		<circle fill="#BE6700" cx="562.9" cy="292.8" r="12.1"/>
	</g>
</g>
<polygon fill="#A29E5E" points="391.3,297 376,311.6 376,282.4 "/>
<polygon fill="#A29E5E" points="702.3,297 687,311.6 687,282.4 "/>
<polygon fill="#A29E5E" points="1058.3,297 1043,311.6 1043,282.4 "/>
<polygon fill="#A29E5E" points="1364.3,297 1349,311.6 1349,282.4 "/>
</svg>
