<?xml version="1.0" encoding="utf-8"?>
<!-- Generator: Adobe Illustrator 21.1.0, SVG Export Plug-In . SVG Version: 6.00 Build 0)  -->
<svg version="1.1" id="Layer_1" xmlns="http://www.w3.org/2000/svg" xmlns:xlink="http://www.w3.org/1999/xlink" x="0px" y="0px"
	 viewBox="0 0 3000 4635" style="enable-background:new 0 0 3000 4635;" xml:space="preserve">
<style type="text/css">
	.st0{fill:#F6F5DE;stroke:#110000;stroke-width:100;stroke-miterlimit:10;}
	.st1{fill:none;stroke:#000000;stroke-width:104;stroke-miterlimit:10;}
	.st2{fill:#BE6700;}
	.st3{enable-background:new    ;}
	.st4{fill:#110000;}
	.st5{fill:#A29E5E;}
</style>
<g id="Layer_4">
	<rect x="42.6" y="49.1" class="st0" width="2908.5" height="4537.4"/>
</g>
<g id="atom_1_">
	<g id="atom">
		<g>
			<g>
				<circle class="st1" cx="1497.9" cy="2318.5" r="910.4"/>
				<circle class="st2" cx="1497.9" cy="2318.5" r="524.8"/>
			</g>
			<path class="st2" d="M2438.1,1754c0,123.2-99.4,222.6-222.6,222.6s-222.6-99.4-222.6-222.6s99.4-222.6,222.6-222.6
				C2337.7,1531.3,2438.1,1630.7,2438.1,1754z"/>
		</g>
	</g>
</g>
<g id="title">
	<g class="st3">
		<path class="st4" d="M851.1,3949.8l45.6-213h30.4l45.6,213h-30.4l-11.4-53.2h-38l-11.4,53.2H851.1z M896.8,3873.7h30.4l-15.2-91.3
			L896.8,3873.7z"/>
		<path class="st4" d="M1026.9,3951.9c-12,0-20.7-3-26.1-9.2c-5.4-6.1-8.2-15.3-8.4-27.7v-94.6h-15.2v-22.8h15.2v-53.2h30.4v53.2
			h22.8v22.8h-22.8v88.8c0,6.1,0.8,10.6,2.5,13.4c1.7,2.9,5,4.3,10.1,4.3c2.2,0,5.6-0.4,10.2-1.2v24.7
			C1038.1,3951.4,1031.8,3951.9,1026.9,3951.9z"/>
		<path class="st4" d="M1141,3937.7c-7.1,9.5-18.7,14.3-35.1,14.3c-16.3,0-28-4.8-35.1-14.3c-7.1-9.5-10.6-23.2-10.6-41.1v-45.6
			c0-17.9,3.5-31.6,10.6-41.1c7.1-9.5,18.7-14.3,35.1-14.3c16.3,0,28,4.8,35.1,14.3c7.1,9.5,10.6,23.2,10.6,41.1v45.6
			C1151.6,3914.5,1148.1,3928.2,1141,3937.7z M1100.3,3926c1.6,0.6,3.5,1,5.6,1s4-0.3,5.6-1c1.6-0.6,3-1.4,4-2.3
			c1.1-0.9,2-2.3,2.7-4c0.7-1.8,1.3-3.3,1.7-4.7c0.4-1.3,0.7-3.3,0.8-5.8c0.2-2.5,0.3-4.5,0.3-6c0-1.5,0.1-3.7,0.1-6.6v-45.6
			c0-2.9,0-5.1-0.1-6.6c0-1.5-0.1-3.5-0.3-6c-0.2-2.5-0.4-4.5-0.8-5.8c-0.4-1.3-1-2.9-1.7-4.7c-0.7-1.8-1.6-3.1-2.7-4
			c-1.1-0.9-2.4-1.7-4-2.3c-1.6-0.6-3.5-1-5.6-1s-4,0.3-5.6,1c-1.6,0.6-3,1.4-4,2.3c-1.1,0.9-2,2.3-2.7,4c-0.7,1.8-1.3,3.3-1.7,4.7
			c-0.4,1.3-0.7,3.3-0.8,5.8c-0.2,2.5-0.3,4.5-0.3,6c0,1.5-0.1,3.7-0.1,6.6v45.6c0,2.9,0,5.1,0.1,6.6c0,1.5,0.1,3.5,0.3,6
			c0.2,2.5,0.4,4.5,0.8,5.8c0.4,1.3,1,2.9,1.7,4.7c0.7,1.8,1.6,3.1,2.7,4C1097.4,3924.6,1098.7,3925.4,1100.3,3926z"/>
		<path class="st4" d="M1172.7,3949.8v-152.1h30.4v17.2c10.9-12.9,23.5-19.4,37.9-19.4c7.3,0,12.6,1.6,16,4.8
			c3.4,3.2,5.7,8.3,6.9,15.3c5-6.6,10.4-11.6,16.2-15c5.8-3.4,13.1-5.1,21.9-5.1c2.5,0,4.8,0.3,6.8,0.8c2,0.5,3.8,1.1,5.3,1.8
			c1.5,0.7,2.8,1.8,4,3.3c1.1,1.5,2.1,2.8,2.9,4c0.8,1.2,1.4,3,1.9,5.3c0.5,2.3,0.9,4.2,1.1,5.7c0.2,1.5,0.4,3.7,0.6,6.7
			c0.2,2.9,0.2,5.2,0.2,6.9s0,4.2,0,7.5c0,0.7,0,1.3,0,1.7v110.6h-30.4v-111c0-0.4,0-1,0-1.9c0-2.6,0-4.6-0.1-6.1
			c-0.1-1.4-0.3-3.1-0.8-4.9c-0.4-1.9-1.2-3.2-2.3-4.1c-1.1-0.9-2.6-1.3-4.4-1.3c-3.1,0-6.2,0.6-9.3,1.8c-3.1,1.2-5.5,2.4-7.2,3.6
			c-1.7,1.1-3.8,2.8-6.4,4.8v119.1h-30.4v-110.4c0-0.5,0-1.2,0-2.1c0-2.2,0-3.9,0-5c0-1.1-0.1-2.6-0.4-4.3c-0.3-1.8-0.7-3.1-1.1-4
			c-0.5-0.9-1.2-1.7-2.3-2.4c-1-0.7-2.3-1.1-3.8-1.1c-7.4,0-15.1,3.2-22.8,9.6v119.7H1172.7z"/>
		<path class="st4" d="M1348.8,3774.9v-30.4h30.4v30.4H1348.8z M1348.8,3949.8v-152.1h30.4v152.1H1348.8z"/>
		<path class="st4" d="M1442.5,3951.9c-7.4,0-13.8-1.2-19.2-3.7c-5.4-2.5-9.8-5.7-13-9.6c-3.2-4-5.9-9-7.8-15.2
			c-2-6.1-3.3-12.3-4.1-18.4c-0.8-6.1-1.2-13.3-1.4-21.5c-0.2-6.6-0.2-13.2,0-19.8c0.2-8.1,0.6-15.2,1.4-21.4
			c0.8-6.2,2.1-12.3,4.2-18.5c2-6.1,4.6-11.2,7.8-15.1c3.2-3.9,7.5-7.1,13-9.6c5.4-2.5,11.8-3.7,19.2-3.7c16,0,27.5,4.3,34.5,13
			c7,8.6,10.7,21.4,11.2,38.4v4h-30.4v-4.3c-0.1-3.8-0.3-7.1-0.8-10c-0.4-2.9-1.1-5.7-2.1-8.6c-1-2.9-2.5-5.1-4.6-6.6
			c-2.1-1.5-4.7-2.3-7.7-2.3c-3,0-5.5,0.9-7.6,2.7c-2.1,1.8-3.6,4.3-4.7,7.7s-1.8,6.8-2.3,10.3c-0.5,3.5-0.8,7.6-0.8,12.2
			c-0.3,9.8-0.3,24.6,0,44.4c0.2,4.4,0.5,8.2,1,11.5c0.5,3.3,1.2,6.5,2.3,9.5c1.1,3.1,2.6,5.4,4.7,7.1c2.1,1.7,4.6,2.5,7.5,2.5
			c2.7,0,5-0.5,7-1.5c1.9-1,3.4-2.3,4.5-3.8c1-1.5,1.8-3.5,2.4-6.1c0.6-2.5,1-4.9,1.1-7.1c0.2-2.2,0.2-4.9,0.2-8.3v-3.7h30.4v3.9
			c-0.2,8-1.2,15.1-3,21.2c-1.7,6.1-4.4,11.5-7.9,16.1c-3.5,4.6-8.2,8.1-14,10.5C1457.4,3950.7,1450.5,3951.9,1442.5,3951.9z"/>
		<path class="st4" d="M1550,3949.8v-213h47.2c22.3,0,38,4.6,47.1,13.7c9.2,9.1,13.7,24.8,13.7,47.2v83.7c0,23.4-4.7,40.6-14,51.8
			c-9.3,11.1-25,16.7-47.1,16.7H1550z M1580.4,3927h16.8c5,0,9.3-0.5,12.8-1.4c3.6-0.9,6.5-2.6,8.7-5c2.2-2.4,4-4.7,5.2-6.9
			c1.3-2.2,2.2-5.6,2.7-10.2c0.5-4.6,0.8-8.4,0.9-11.3c0.1-3,0.1-7.6,0.1-13.8c0-2.1,0-3.6,0-4.6v-68.5c0-3.9,0-7-0.1-9.3
			c0-2.3-0.2-5-0.4-8.1c-0.2-3.1-0.5-5.6-0.9-7.4c-0.4-1.8-1-3.9-1.7-6.1s-1.6-4-2.7-5.3c-1.1-1.3-2.4-2.6-3.9-4
			c-1.5-1.4-3.3-2.4-5.3-3.1c-2-0.7-4.4-1.2-7.1-1.7c-2.7-0.4-5.7-0.7-9-0.7h-16.2V3927z"/>
		<path class="st4" d="M1722.4,3951.9c-7.4,0-13.8-1.3-19.2-3.8c-5.4-2.5-9.7-5.8-13-9.9c-3.2-4.1-5.8-9.3-7.8-15.7
			c-2-6.4-3.3-12.8-4.1-19.1c-0.8-6.4-1.2-13.8-1.4-22.3c-0.2-6.7-0.2-13.3,0-20c0.2-7.9,0.8-15,1.6-21.1c0.8-6.1,2.3-12.1,4.3-17.9
			c2.1-5.8,4.7-10.5,8-14.3c3.3-3.7,7.6-6.7,13-9s11.6-3.4,18.7-3.4c6.5,0,12.2,0.9,17.2,2.6c5,1.7,9.1,4.3,12.4,7.7
			c3.3,3.4,6,7.3,8.2,11.5c2.2,4.2,3.8,9.3,4.9,15.3c1.1,6,1.9,11.9,2.3,17.6c0.4,5.8,0.7,12.4,0.7,20v3.6h-60.8v7.6
			c0,1,0,2.7,0,4.9c-0.2,2.9-0.2,6-0.1,9.1c0.1,3.1,0.3,6.2,0.4,9.2c0.2,3,0.6,5.9,1.3,8.6s1.6,5.1,2.6,7.2c1,2.1,2.5,3.7,4.3,4.9
			c1.9,1.2,4.1,1.8,6.6,1.8c3.2,0,5.8-0.6,7.8-1.8c2.1-1.2,3.6-3.1,4.6-5.5c1-2.5,1.7-4.9,2.1-7.4c0.4-2.5,0.6-5.5,0.7-9.3v-6.4
			h30.2v6.1c-0.7,16.2-4.7,28.5-12,36.8C1748.8,3947.8,1737.6,3951.9,1722.4,3951.9z M1707.5,3858.5h30.2v-9.2
			c-0.1-4-0.3-7.6-0.7-10.6c-0.4-3-1.1-6-2.1-9c-1-3-2.5-5.3-4.6-6.9c-2.1-1.6-4.6-2.4-7.6-2.4c-3.1,0-5.7,0.8-7.8,2.5
			c-2.1,1.7-3.6,4.1-4.6,7.2c-1,3.1-1.7,6.2-2.1,9.2c-0.4,3-0.6,6.6-0.7,10.8V3858.5z"/>
		<path class="st4" d="M1826.3,3951.9c-12.5,0-22.6-3.7-30.1-11.2c-7.6-7.4-12.7-17.1-15.5-29l22.8-7.6
			c5.5,15.2,13.1,22.8,22.8,22.8c4.8,0,8.6-1.3,11.2-4c2.7-2.7,4-6.4,4-11.2c0-7-2.5-12.9-7.6-17.6l-30.4-22.8
			c-3.4-2.3-6.3-4.5-8.6-6.5c-2.3-2-4.6-4.5-7-7.4c-2.4-2.9-4.2-6.2-5.4-9.9c-1.2-3.6-1.8-7.6-1.8-11.9c0-13,4.1-22.9,12.4-29.8
			c8.3-6.9,19.4-10.3,33.2-10.3c6.6,0,12.5,1.1,17.8,3.1c5.3,2.1,9.8,5,13.4,8.9c3.6,3.8,6.6,8,8.9,12.7c2.3,4.6,4.2,9.8,5.5,15.5
			l-22.8,7.6c-1.1-3-2.2-5.6-3.3-7.8c-1.1-2.2-2.6-4.5-4.5-7.1c-1.9-2.5-4.1-4.5-6.6-5.9c-2.5-1.4-5.3-2.1-8.4-2.1
			c-4.8,0-8.6,1.3-11.2,4c-2.7,2.7-4,6.4-4,11.2c0,4.8,2.5,9,7.6,12.8l30.4,22.8c3.4,2.7,6.3,5.3,8.7,7.8c2.4,2.5,4.8,5.4,7.1,8.7
			c2.3,3.3,4,7,5.2,11c1.2,4,1.8,8.4,1.8,13c0,13-4.1,22.9-12.4,29.8C1851.3,3948.5,1840.2,3951.9,1826.3,3951.9z"/>
		<path class="st4" d="M1887.9,3774.9v-30.4h30.4v30.4H1887.9z M1887.9,3949.8v-152.1h30.4v152.1H1887.9z"/>
		<path class="st4" d="M1991.7,3995.3c-3.8,0-6.9,0-9.3-0.1c-2.4,0-5.6-0.1-9.7-0.3c-4.1-0.2-7.6-0.5-10.3-0.9
			c-2.8-0.4-5.9-1-9.5-1.7c-3.6-0.7-6.5-1.6-8.9-2.7c-2.3-1.1-4.6-2.4-6.7-3.9c-2.1-1.5-3.7-3.3-4.8-5.5c-1.1-2.2-1.6-4.6-1.6-7.3
			c0-7.9,2.1-14.7,6.4-20.3c4.2-5.6,9.7-10.1,16.5-13.4c-4.1-1.1-7.7-2.8-10.7-5.1c-3-2.3-4.5-5-4.5-8.3c0-1.3,0.2-2.8,0.5-4.3
			c0.3-1.5,0.7-2.9,1.1-4.1c0.4-1.2,1-2.6,1.9-4.2c0.9-1.6,1.6-2.8,2.1-3.7c0.5-0.9,1.4-2.2,2.6-3.8c1.2-1.6,2-2.7,2.4-3.3
			c0.4-0.6,1.3-1.7,2.6-3.2c1.3-1.5,2-2.4,2.1-2.7c-10.1-12-15.2-27.3-15.2-45.6c0-10.5,1.7-19.9,5-28.2c3.3-8.2,8.5-14.8,15.5-19.8
			c7-5,15.4-7.4,25.1-7.4c5.6,0,10.5,0.8,14.7,2.4c4.2,1.6,7.6,3.6,10.3,6c2.7,2.4,5.2,5.6,7.8,9.6c6-11.2,14.6-17.1,25.7-17.8
			c0.2,0,0.5,0,0.7,0c0.2,0,0.5,0,0.9,0s0.6,0,0.8,0v24.8c-0.4,0-1,0-1.9,0c-3.4,0-6,0-7.7,0.1c-1.7,0.1-3.7,0.4-5.8,1
			c-2.1,0.6-3.8,1.5-5.1,2.8c1.4,3.1,2.7,7.2,3.7,12.3c1.1,5.1,1.6,9.8,1.6,14.2c0,10.6-1.6,20-4.8,28.2
			c-3.2,8.2-8.3,14.7-15.3,19.6c-7,4.9-15.5,7.4-25.5,7.4l-15.3-1.8c-0.2,0.4-0.6,1.1-1.2,2.1c-0.6,1-1.1,1.8-1.5,2.4
			c-0.4,0.6-0.7,1.4-1,2.4c-0.3,1-0.5,1.9-0.5,2.8c0,2.1,1,3.8,3,5.2c2,1.4,4.7,2.5,8.2,3.1c3.5,0.7,6.8,1.2,10,1.5
			c3.2,0.3,6.8,0.6,10.8,0.8c4,0.2,6.7,0.4,8.2,0.7c4.5,0.6,8.5,1.4,12.1,2.2c3.5,0.8,7.1,2,10.8,3.6c3.7,1.6,6.7,3.5,9.1,5.7
			c2.4,2.2,4.3,5.1,5.9,8.6c1.5,3.5,2.3,7.5,2.3,12c0,5.5-1,10.5-2.9,14.9c-1.9,4.4-4.5,8-7.8,10.8c-3.2,2.9-7.2,5.2-11.8,7.1
			c-4.6,1.9-9.4,3.2-14.5,4C2002.9,3994.9,1997.5,3995.3,1991.7,3995.3z M1991.7,3972.8c2.1,0,4.1,0,5.8-0.1
			c1.7-0.1,3.7-0.2,5.9-0.5c2.2-0.2,4.1-0.6,5.8-1.1c1.6-0.5,3.2-1.2,4.6-2c1.5-0.8,2.6-1.8,3.4-3.1c0.8-1.3,1.2-2.8,1.2-4.5
			c0-8.5-8.1-13.7-24.4-15.6l-25.1-3c-3.1,2.2-5.7,5.4-7.9,9.6c-2.2,4.2-3.3,8.6-3.3,13.2c0,1.3,0.4,2.4,1.3,3.3
			c0.9,0.9,2.2,1.6,3.9,2.1c1.7,0.5,3.4,0.9,5.2,1.2c1.8,0.3,3.9,0.5,6.4,0.6c2.5,0.1,4.6,0.1,6.3,0.1c1.7,0,3.8,0,6.1-0.1
			C1989.2,3972.9,1990.8,3972.8,1991.7,3972.8z M1984.1,3883.2c12.7,0,19-10.8,19-32.3c0-4.4-0.3-8.4-0.8-12.1
			c-0.6-3.7-1.5-7.3-2.9-10.8c-1.3-3.5-3.3-6.3-5.9-8.3c-2.6-2-5.7-3-9.4-3c-3.7,0-6.9,1-9.5,3c-2.6,2-4.6,4.8-5.9,8.3
			c-1.3,3.5-2.2,7.1-2.8,10.8c-0.6,3.7-0.8,7.7-0.8,12.1C1965.1,3872.5,1971.4,3883.2,1984.1,3883.2z"/>
		<path class="st4" d="M2049.6,3949.8v-152.1h30.4v16.4c4.5-4.1,8.2-7.3,11.1-9.4c2.9-2.2,6.8-4.2,11.8-6.2c5-1.9,10.4-2.9,16.1-2.9
			c6.5,0,11.8,2.4,15.8,7.1c4,4.8,6.1,10.6,6.1,17.5v129.7h-30.4v-114.1c0-5.3-0.8-9.2-2.3-11.6c-1.5-2.4-4.6-3.6-9.2-3.6
			c-2.6,0-5.2,0.5-7.8,1.6c-2.6,1.1-4.5,2.1-5.8,3c-1.3,0.9-3.1,2.4-5.5,4.3v120.4H2049.6z"/>
	</g>
	<g class="st3">
		<path class="st5" d="M1312.3,4095.2v-86.6h18.6c4,0,7.6,0.4,10.7,1.3c3.2,0.8,5.9,2.1,8.3,3.8c2.4,1.7,4.2,4,5.5,6.8
			c1.3,2.8,1.9,6.1,1.9,9.8c0,5.4-1.1,9.5-3.4,12.4c-2.3,2.8-5.8,4.9-10.6,6.2c5.2,1.7,9,4.2,11.6,7.5c2.6,3.3,3.9,8,3.9,14.1
			c0,7.6-2.2,13.7-6.6,18.1c-4.4,4.4-10.5,6.6-18.1,6.6H1312.3z M1324.6,4045.7h6.2c10.3,0,15.5-5.2,15.5-15.5
			c0-1.7-0.2-3.2-0.6-4.5c-0.4-1.3-0.9-2.4-1.5-3.3c-0.6-0.9-1.5-1.6-2.6-2.2c-1.2-0.6-2.2-1.1-3.2-1.4s-2.3-0.6-4.1-0.7
			c-1.8-0.1-3.3-0.2-4.5-0.3c-1.2,0-2.9,0-5.1,0V4045.7z M1324.6,4085.9h6.2c5.3,0,9.3-1.2,11.7-3.7c2.5-2.5,3.7-6.4,3.7-11.8
			c0-5.4-1.2-9.3-3.7-11.8c-2.5-2.5-6.4-3.7-11.7-3.7h-6.2V4085.9z"/>
		<path class="st5" d="M1366.1,4095.2v-61.9h12.4v8.3c1.3-2.4,3.1-4.6,5.5-6.4c2.4-1.8,5.1-2.7,8-2.7c0.1,0,0.8,0.1,2,0.2v13.7
			c-2.3-0.9-4.6-1.4-6.9-1.4c-2.6,0-4.7,0.8-6.2,2.3c-1.6,1.5-2.4,3.6-2.4,6.1v41.8H1366.1z"/>
		<path class="st5" d="M1409.4,4096.1c-3.4,0-6.4-1.5-8.8-4.5c-2.4-3-3.6-6.3-3.6-10.1c0-3,0.5-5.7,1.5-8.2c1-2.4,2.1-4.4,3.2-5.9
			c1.1-1.5,3-3,5.7-4.5c2.6-1.6,4.6-2.6,6-3.2s3.7-1.5,7.1-2.9c0.6-0.2,1-0.4,1.3-0.5v-4.4c0-3.1-0.4-5.6-1.3-7.3
			c-0.9-1.7-2.5-2.6-4.9-2.6c-2.1,0-3.6,0.7-4.6,2.2c-0.9,1.5-1.4,3.5-1.6,6.1c0,0.4,0,0.9,0,1.6h-12.4c0.1-5.9,1.7-10.7,5-14.2
			c3.3-3.5,7.8-5.3,13.6-5.3c5.8,0,10.3,1.8,13.6,5.3c3.3,3.6,5,8.3,5,14.1v27.8c0,6.4,0.5,11.6,1.6,15.5h-12.3l-1.6-9.3
			c-0.6,1.3-1.2,2.3-1.6,3c-0.4,0.7-1,1.6-1.8,2.6c-0.8,1-1.5,1.9-2.3,2.4c-0.8,0.6-1.7,1.1-2.9,1.5
			C1412.1,4095.9,1410.8,4096.1,1409.4,4096.1z M1415.6,4085.9c0.9,0,1.7-0.3,2.5-0.8c0.8-0.5,1.4-1,1.9-1.5
			c0.4-0.5,0.9-1.1,1.5-1.9c0.1-0.2,0.2-0.3,0.2-0.3v-17.1c-0.5,0.4-1.4,0.9-2.6,1.6c-1.2,0.7-2.1,1.3-2.9,1.8
			c-0.7,0.5-1.6,1.1-2.6,1.9c-1,0.8-1.8,1.6-2.3,2.4c-0.5,0.8-1,1.7-1.5,2.8c-0.4,1.1-0.6,2.2-0.6,3.4
			C1409.4,4083.4,1411.5,4085.9,1415.6,4085.9z"/>
		<path class="st5" d="M1458.3,4096.1c-2.7,0-5.1-0.8-7.2-2.3c-2-1.5-3.6-3.6-4.7-6.3c-1.1-2.6-1.9-5.4-2.5-8.2
			c-0.5-2.9-0.9-5.9-1-9.2c-0.1-1.5-0.1-5.2,0-11.1c0.1-2.1,0.2-4.1,0.3-5.8c0.1-1.7,0.3-3.5,0.7-5.4c0.3-1.9,0.7-3.5,1.2-5
			c0.5-1.4,1.1-2.8,1.9-4.2c0.8-1.3,1.7-2.4,2.7-3.3c1-0.9,2.3-1.6,3.7-2.1c1.5-0.5,3.1-0.8,4.8-0.8c1.4,0,2.7,0.2,3.9,0.6
			c1.2,0.4,2.4,1,3.5,1.7c1.1,0.8,2,1.5,2.6,2.1c0.7,0.6,1.5,1.5,2.6,2.6v-30.8h12.4v86.6h-12.4v-5.6c-1.9,1.9-3.8,3.5-5.7,4.7
			C1463,4095.5,1460.8,4096.1,1458.3,4096.1z M1461.4,4085.9c3,0,6.1-0.6,9.3-1.9v-38.9c-2.8-1.6-5.9-2.5-9.3-2.5
			c-1.2,0-2.3,0.3-3.1,0.9c-0.8,0.6-1.5,1.5-1.9,2.6c-0.4,1.1-0.7,2.3-0.9,3.5c-0.2,1.2-0.3,2.6-0.3,4.3c-0.1,7.2-0.1,12.9,0,17.2
			c0,2.1,0.1,3.9,0.3,5.5c0.2,1.6,0.5,3.2,0.9,4.7c0.4,1.5,1.1,2.7,1.9,3.5C1459.2,4085.5,1460.2,4085.9,1461.4,4085.9z"/>
		<path class="st5" d="M1513.2,4095.2v-86.6h34v9.3h-21.7v27.8h15.5v9.3h-15.5v40.2H1513.2z"/>
		<path class="st5" d="M1549.5,4095.2v-61.9h12.4v8.3c1.3-2.4,3.1-4.6,5.5-6.4c2.4-1.8,5.1-2.7,8-2.7c0.1,0,0.8,0.1,2,0.2v13.7
			c-2.3-0.9-4.6-1.4-6.9-1.4c-2.6,0-4.7,0.8-6.2,2.3c-1.6,1.5-2.4,3.6-2.4,6.1v41.8H1549.5z"/>
		<path class="st5" d="M1613.2,4090.3c-2.9,3.9-7.6,5.8-14.3,5.8c-6.6,0-11.4-1.9-14.3-5.8s-4.3-9.4-4.3-16.7V4055
			c0-7.3,1.4-12.9,4.3-16.7s7.6-5.8,14.3-5.8c6.6,0,11.4,1.9,14.3,5.8s4.3,9.4,4.3,16.7v18.6
			C1617.5,4080.8,1616,4086.4,1613.2,4090.3z M1596.6,4085.5c0.7,0.3,1.4,0.4,2.3,0.4s1.6-0.1,2.3-0.4c0.7-0.3,1.2-0.6,1.6-0.9
			c0.4-0.4,0.8-0.9,1.1-1.6c0.3-0.7,0.5-1.4,0.7-1.9c0.2-0.5,0.3-1.3,0.3-2.4c0.1-1,0.1-1.8,0.1-2.4c0-0.6,0-1.5,0-2.7V4055
			c0-1.2,0-2.1,0-2.7c0-0.6-0.1-1.4-0.1-2.4c-0.1-1-0.2-1.8-0.3-2.4c-0.2-0.5-0.4-1.2-0.7-1.9c-0.3-0.7-0.7-1.3-1.1-1.6
			c-0.4-0.4-1-0.7-1.6-0.9c-0.7-0.3-1.4-0.4-2.3-0.4s-1.6,0.1-2.3,0.4c-0.7,0.3-1.2,0.6-1.6,0.9c-0.4,0.4-0.8,0.9-1.1,1.6
			c-0.3,0.7-0.5,1.4-0.7,1.9c-0.2,0.5-0.3,1.3-0.3,2.4c-0.1,1-0.1,1.8-0.1,2.4c0,0.6,0,1.5,0,2.7v18.6c0,1.2,0,2.1,0,2.7
			c0,0.6,0.1,1.4,0.1,2.4c0.1,1,0.2,1.8,0.3,2.4c0.2,0.5,0.4,1.2,0.7,1.9c0.3,0.7,0.7,1.3,1.1,1.6
			C1595.4,4085,1595.9,4085.3,1596.6,4085.5z"/>
		<path class="st5" d="M1642.9,4096.1c-5.1,0-9.2-1.5-12.3-4.5c-3.1-3-5.2-7-6.3-11.8l9.3-3.1c2.2,6.2,5.3,9.3,9.3,9.3
			c2,0,3.5-0.5,4.6-1.6c1.1-1.1,1.6-2.6,1.6-4.6c0-2.9-1-5.3-3.1-7.2l-12.4-9.3c-1.4-0.9-2.5-1.8-3.5-2.6c-0.9-0.8-1.9-1.8-2.9-3
			c-1-1.2-1.7-2.5-2.2-4c-0.5-1.5-0.8-3.1-0.8-4.8c0-5.3,1.7-9.3,5.1-12.1c3.4-2.8,7.9-4.2,13.5-4.2c2.7,0,5.1,0.4,7.3,1.3
			c2.2,0.9,4,2.1,5.4,3.6c1.5,1.5,2.7,3.3,3.6,5.1c0.9,1.9,1.7,4,2.2,6.3l-9.3,3.1c-0.5-1.2-0.9-2.3-1.4-3.2
			c-0.5-0.9-1.1-1.8-1.8-2.9c-0.8-1-1.7-1.8-2.7-2.4c-1-0.6-2.2-0.8-3.4-0.8c-2,0-3.5,0.5-4.6,1.6c-1.1,1.1-1.6,2.6-1.6,4.6
			c0,1.9,1,3.7,3.1,5.2l12.4,9.3c1.4,1.1,2.6,2.2,3.6,3.2c1,1,1.9,2.2,2.9,3.5c0.9,1.3,1.6,2.8,2.1,4.5c0.5,1.6,0.7,3.4,0.7,5.3
			c0,5.3-1.7,9.3-5.1,12.1C1653,4094.7,1648.5,4096.1,1642.9,4096.1z"/>
		<path class="st5" d="M1685.1,4096.1c-4.9,0-8.4-1.2-10.6-3.7c-2.2-2.5-3.3-6.2-3.4-11.3v-38.5h-6.2v-9.3h6.2v-21.7h12.4v21.7h9.3
			v9.3h-9.3v36.1c0,2.5,0.3,4.3,1,5.5s2,1.7,4.1,1.7c0.9,0,2.3-0.2,4.2-0.5v10.1C1689.7,4095.9,1687.1,4096.1,1685.1,4096.1z"/>
	</g>
</g>
</svg>
