<?xml version="1.0" encoding="utf-8"?>
<!DOCTYPE svg PUBLIC "-//W3C//DTD SVG 1.1//EN" "http://www.w3.org/Graphics/SVG/1.1/DTD/svg11.dtd">
<svg version="1.1" xmlns="http://www.w3.org/2000/svg" xmlns:xlink="http://www.w3.org/1999/xlink" x="0px" y="0px" width="3000px"
	 height="4635px" viewBox="0 0 3000 4635" enable-background="new 0 0 3000 4635" xml:space="preserve">
<g id="Layer_4">

		<rect x="42.6" y="49.1" fill="#F6F5DE" stroke="#110000" stroke-width="100" stroke-miterlimit="10" width="2908.5" height="4537.4"/>
</g>
<g id="atom_1_">
	<g id="atom">
		<g>
			<g>
				<circle fill="none" stroke="#000000" stroke-width="104" stroke-miterlimit="10" cx="1497.9" cy="2318.5" r="910.4"/>
				<circle fill="#BE6700" cx="1497.9" cy="2318.5" r="524.8"/>
			</g>
			<path fill="#BE6700" d="M2438.1,1754c0,123.2-99.4,222.6-222.6,222.6s-222.6-99.4-222.6-222.6s99.4-222.6,222.6-222.6
				C2337.7,1531.3,2438.1,1630.7,2438.1,1754z"/>
		</g>
	</g>
</g>
<g id="title">
	<g>
		<path fill="#110000" d="M779.5,3776l65,173.8h-39.7l-13.1-38.7h-65l-13.6,38.7h-38.5l65.7-173.8H779.5z M781.7,3882.6l-21.9-63.8
			h-0.5l-22.6,63.8H781.7z"/>
		<path fill="#110000" d="M920.2,3824v23.1h-25.3v62.3c0,5.8,1,9.7,2.9,11.7c1.9,1.9,5.8,2.9,11.7,2.9c1.9,0,3.8-0.1,5.6-0.2
			c1.8-0.2,3.5-0.4,5.1-0.7v26.8c-2.9,0.5-6.2,0.8-9.7,1c-3.6,0.2-7.1,0.2-10.5,0.2c-5.4,0-10.4-0.4-15.2-1.1
			c-4.8-0.7-9-2.1-12.7-4.3c-3.7-2.1-6.5-5.1-8.6-9c-2.1-3.9-3.2-9-3.2-15.3v-74.2h-20.9V3824h20.9v-37.7h34.6v37.7H920.2z"/>
		<path fill="#110000" d="M932.6,3859.6c3.1-8.2,7.5-15.2,13.1-20.9c5.7-5.8,12.5-10.2,20.4-13.4c7.9-3.2,16.9-4.7,26.8-4.7
			c9.9,0,18.9,1.6,26.9,4.7c8,3.2,14.9,7.6,20.6,13.4c5.7,5.8,10.1,12.7,13.1,20.9c3.1,8.2,4.6,17.3,4.6,27.4
			c0,10.1-1.5,19.1-4.6,27.3c-3.1,8.1-7.5,15.1-13.1,20.8c-5.7,5.8-12.5,10.2-20.6,13.3c-8,3.1-17,4.6-26.9,4.6
			c-9.9,0-18.8-1.5-26.8-4.6c-8-3.1-14.8-7.5-20.4-13.3c-5.7-5.8-10.1-12.7-13.1-20.8c-3.1-8.1-4.6-17.2-4.6-27.3
			C927.9,3876.9,929.5,3867.8,932.6,3859.6z M964,3901.7c1,4.8,2.6,9.1,5,12.9c2.4,3.8,5.5,6.9,9.4,9.1c3.9,2.3,8.8,3.4,14.6,3.4
			c5.8,0,10.7-1.1,14.7-3.4c4-2.3,7.1-5.3,9.5-9.1c2.4-3.8,4-8.1,5-12.9c1-4.8,1.5-9.7,1.5-14.7c0-5-0.5-10-1.5-14.8
			c-1-4.9-2.6-9.2-5-12.9c-2.4-3.7-5.5-6.8-9.5-9.1c-4-2.3-8.9-3.5-14.7-3.5c-5.8,0-10.7,1.2-14.6,3.5c-3.9,2.4-7,5.4-9.4,9.1
			c-2.4,3.7-4,8-5,12.9c-1,4.9-1.5,9.8-1.5,14.8C962.5,3892,963,3896.9,964,3901.7z"/>
		<path fill="#110000" d="M1109.3,3824v17h0.5c4.5-6.5,10-11.5,16.4-15.1c6.4-3.6,13.8-5.4,22-5.4c7.9,0,15.2,1.5,21.8,4.6
			c6.6,3.1,11.6,8.5,15,16.3c3.7-5.5,8.8-10.4,15.2-14.6c6.4-4.2,14-6.3,22.8-6.3c6.7,0,12.8,0.8,18.5,2.4
			c5.7,1.6,10.5,4.2,14.6,7.8c4.1,3.6,7.2,8.2,9.5,14c2.3,5.8,3.4,12.7,3.4,20.8v84.2h-34.6v-71.3c0-4.2-0.2-8.2-0.5-11.9
			c-0.3-3.7-1.2-7-2.7-9.7c-1.5-2.8-3.6-4.9-6.4-6.6c-2.8-1.6-6.7-2.4-11.6-2.4s-8.8,0.9-11.8,2.8c-3,1.9-5.4,4.3-7.1,7.3
			c-1.7,3-2.8,6.4-3.4,10.2c-0.6,3.8-0.9,7.7-0.9,11.6v70.1h-34.6v-70.6c0-3.7-0.1-7.4-0.2-11.1c-0.2-3.7-0.9-7-2.1-10.1
			c-1.2-3.1-3.2-5.6-6.1-7.4c-2.8-1.9-7-2.8-12.5-2.8c-1.6,0-3.8,0.4-6.4,1.1c-2.7,0.7-5.3,2.1-7.8,4.1c-2.5,2-4.7,5-6.4,8.8
			c-1.8,3.8-2.7,8.8-2.7,15v73h-34.6V3824H1109.3z"/>
		<path fill="#110000" d="M1292.3,3804.5V3776h34.6v28.5H1292.3z M1326.8,3824v125.8h-34.6V3824H1326.8z"/>
		<path fill="#110000" d="M1409.3,3846.6c-5.5,0-10.1,1.3-13.9,3.8c-3.7,2.5-6.8,5.8-9.1,9.7c-2.4,4-4,8.4-5,13.1
			c-1,4.8-1.5,9.5-1.5,14.2c0,4.5,0.5,9.2,1.5,13.9c1,4.7,2.6,9,4.7,12.8c2.2,3.8,5.1,6.9,8.9,9.4c3.7,2.4,8.3,3.7,13.6,3.7
			c8.3,0,14.6-2.3,19.1-6.9c4.5-4.6,7.3-10.8,8.4-18.6h33.3c-2.3,16.7-8.8,29.4-19.5,38.2c-10.7,8.8-24.4,13.1-41.1,13.1
			c-9.4,0-18.1-1.6-25.9-4.7c-7.9-3.2-14.6-7.6-20.1-13.3c-5.5-5.7-9.8-12.5-12.9-20.3c-3.1-7.9-4.6-16.5-4.6-25.9
			c0-9.7,1.4-18.8,4.3-27.1c2.8-8.4,7-15.6,12.5-21.7c5.5-6.1,12.2-10.8,20.2-14.2c7.9-3.4,17-5.1,27.3-5.1c7.5,0,14.6,1,21.5,2.9
			c6.9,1.9,13.1,4.9,18.5,8.9c5.4,4,9.9,8.9,13.3,14.8c3.4,5.9,5.4,12.9,5.8,21.1h-33.8C1432.6,3853.8,1424.1,3846.6,1409.3,3846.6z
			"/>
		<path fill="#110000" d="M1625.5,3776c11.2,0,21.6,1.8,31.3,5.4c9.7,3.6,18,8.9,25.1,16.1c7.1,7.1,12.6,16.1,16.5,26.8
			c4,10.7,6,23.3,6,37.7c0,12.7-1.6,24.3-4.9,35c-3.2,10.7-8.2,20-14.7,27.7s-14.8,13.9-24.6,18.4c-9.8,4.5-21.4,6.7-34.7,6.7h-75
			V3776H1625.5z M1622.8,3917.7c5.5,0,10.9-0.9,16.1-2.7c5.2-1.8,9.8-4.7,13.9-8.9c4.1-4.1,7.3-9.5,9.7-16.2
			c2.4-6.7,3.7-14.8,3.7-24.3c0-8.8-0.9-16.7-2.6-23.7c-1.7-7.1-4.5-13.1-8.4-18.1c-3.9-5-9-8.9-15.5-11.6c-6.4-2.7-14.3-4-23.7-4
			h-27.3v109.5H1622.8z"/>
		<path fill="#110000" d="M1759.3,3919.6c5.2,5,12.7,7.5,22.4,7.5c7,0,13-1.7,18-5.2c5-3.5,8.1-7.2,9.2-11.1h30.4
			c-4.9,15.1-12.3,25.9-22.4,32.4c-10.1,6.5-22.2,9.7-36.5,9.7c-9.9,0-18.8-1.6-26.8-4.7c-8-3.2-14.7-7.7-20.2-13.5
			c-5.5-5.8-9.8-12.8-12.8-20.9c-3-8.1-4.5-17-4.5-26.8c0-9.4,1.5-18.2,4.6-26.3c3.1-8.1,7.5-15.1,13.1-21.1
			c5.7-5.9,12.5-10.6,20.3-14c7.9-3.4,16.6-5.1,26.2-5.1c10.7,0,20,2.1,28,6.2c7.9,4.1,14.5,9.7,19.6,16.7c5.1,7,8.8,14.9,11.1,23.9
			c2.3,8.9,3.1,18.3,2.4,28h-90.8C1751.3,3906.5,1754.1,3914.6,1759.3,3919.6z M1798.4,3853.4c-4.1-4.5-10.4-6.8-18.9-6.8
			c-5.5,0-10.1,0.9-13.8,2.8c-3.7,1.9-6.6,4.2-8.8,6.9c-2.2,2.8-3.7,5.7-4.6,8.8c-0.9,3.1-1.4,5.8-1.6,8.3h56.2
			C1805.4,3864.6,1802.5,3858,1798.4,3853.4z"/>
		<path fill="#110000" d="M1886.2,3918.5c1.5,2.7,3.5,4.9,6,6.6c2.4,1.7,5.2,3,8.4,3.8c3.2,0.8,6.4,1.2,9.9,1.2c2.4,0,5-0.3,7.7-0.9
			c2.7-0.6,5.1-1.5,7.3-2.7c2.2-1.2,4-2.8,5.5-4.9c1.5-2,2.2-4.6,2.2-7.7c0-5.2-3.4-9.1-10.3-11.7c-6.9-2.6-16.5-5.2-28.8-7.8
			c-5-1.1-9.9-2.5-14.7-4c-4.8-1.5-9-3.6-12.8-6.1c-3.7-2.5-6.7-5.7-9-9.5c-2.3-3.8-3.4-8.5-3.4-14c0-8.1,1.6-14.8,4.7-20
			c3.2-5.2,7.3-9.3,12.5-12.3c5.2-3,11-5.1,17.5-6.3c6.5-1.2,13.1-1.8,20-1.8c6.8,0,13.4,0.7,19.8,1.9c6.4,1.3,12.1,3.5,17.2,6.6
			c5,3.1,9.2,7.2,12.5,12.3c3.3,5.1,5.3,11.6,6,19.3h-32.9c-0.5-6.7-3-11.2-7.5-13.5c-4.5-2.4-9.9-3.5-16.1-3.5
			c-1.9,0-4.1,0.1-6.3,0.4c-2.3,0.2-4.3,0.8-6.2,1.6c-1.9,0.8-3.4,2-4.7,3.5c-1.3,1.5-1.9,3.6-1.9,6.2c0,3.1,1.1,5.6,3.4,7.5
			c2.3,1.9,5.2,3.5,8.9,4.7s7.8,2.3,12.5,3.3c4.7,1,9.5,2,14.4,3.2c5,1.1,9.9,2.5,14.7,4.1c4.8,1.6,9,3.8,12.8,6.5
			c3.7,2.7,6.7,6,9,10c2.3,4,3.4,8.9,3.4,14.7c0,8.3-1.7,15.2-5,20.8c-3.3,5.6-7.7,10.1-13,13.5c-5.4,3.4-11.5,5.8-18.4,7.2
			c-6.9,1.4-13.9,2.1-21.1,2.1c-7.3,0-14.4-0.7-21.4-2.2c-7-1.5-13.2-3.9-18.6-7.3c-5.4-3.4-9.9-7.9-13.4-13.5
			c-3.5-5.6-5.4-12.6-5.7-21.1h32.9C1883.9,3912.6,1884.7,3915.8,1886.2,3918.5z"/>
		<path fill="#110000" d="M1984,3804.5V3776h34.6v28.5H1984z M2018.5,3824v125.8H1984V3824H2018.5z"/>
		<path fill="#110000" d="M2159.8,3959c-1.4,6.5-4.3,12.5-8.9,18.1c-4.5,5.6-11.1,10.3-19.7,14.2c-8.6,3.9-20.1,5.8-34.6,5.8
			c-6.2,0-12.5-0.8-18.9-2.3c-6.4-1.5-12.3-3.9-17.5-7.2c-5.3-3.2-9.7-7.4-13.1-12.5c-3.5-5.1-5.5-11.2-6-18.4h34.3
			c1.6,6.5,4.8,11,9.5,13.5c4.7,2.5,10.1,3.8,16.3,3.8c9.7,0,16.8-2.9,21.3-8.8c4.5-5.8,6.6-13.2,6.5-22.1v-16.5h-0.5
			c-3.7,6.7-9,11.6-15.9,14.7c-6.9,3.2-14.2,4.7-21.8,4.7c-9.4,0-17.5-1.7-24.3-5c-6.8-3.3-12.4-7.9-16.8-13.6
			c-4.4-5.8-7.6-12.5-9.6-20.2c-2-7.7-3-15.9-3-24.5c0-8.1,1.2-15.9,3.5-23.5c2.4-7.5,5.8-14.2,10.3-20c4.5-5.8,10.2-10.3,16.9-13.8
			c6.7-3.4,14.5-5.1,23.2-5.1c8.3,0,15.5,1.5,21.8,4.6c6.2,3.1,11.5,8.3,15.7,15.6h0.5V3824h32.9v117.8
			C2161.9,3946.8,2161.2,3952.5,2159.8,3959z M2112.5,3917.2c3.7-1.9,6.8-4.5,9.2-7.8c2.4-3.2,4.3-6.9,5.5-11.1
			c1.2-4.1,1.8-8.5,1.8-13c0-5.2-0.5-10.1-1.5-14.7s-2.6-8.7-4.9-12.3c-2.3-3.6-5.3-6.4-9-8.5c-3.7-2.1-8.4-3.2-14.1-3.2
			c-4.9,0-9,1-12.5,2.9c-3.5,1.9-6.4,4.6-8.8,7.9c-2.4,3.3-4.1,7.1-5.1,11.4c-1.1,4.3-1.6,8.8-1.6,13.5c0,4.5,0.4,9,1.3,13.5
			c0.9,4.5,2.4,8.5,4.6,12c2.2,3.6,5.1,6.5,8.6,8.8c3.6,2.3,8,3.4,13.4,3.4C2104.4,3920.1,2108.7,3919.1,2112.5,3917.2z"/>
		<path fill="#110000" d="M2217.6,3824v17.5h0.7c4.4-7.3,10.1-12.6,17-15.9c7-3.3,14.1-5,21.4-5c9.2,0,16.8,1.3,22.8,3.8
			c5.9,2.5,10.6,6,14,10.5c3.4,4.5,5.8,9.9,7.2,16.3c1.4,6.4,2.1,13.5,2.1,21.3v77.4h-34.6v-71.1c0-10.4-1.6-18.1-4.9-23.2
			c-3.2-5.1-9-7.7-17.3-7.7c-9.4,0-16.2,2.8-20.4,8.4c-4.2,5.6-6.3,14.8-6.3,27.6v66h-34.6V3824H2217.6z"/>
	</g>
	<g>
		<path fill="#A29E5E" d="M1313.8,4022c3.1,0,5.9,0.3,8.5,0.8c2.6,0.5,4.8,1.4,6.6,2.7c1.8,1.2,3.2,2.9,4.2,5s1.5,4.6,1.5,7.7
			c0,3.3-0.7,6-2.2,8.2c-1.5,2.2-3.7,4-6.6,5.4c4,1.2,7,3.2,9,6.1c2,2.9,3,6.4,3,10.5c0,3.3-0.6,6.1-1.9,8.5c-1.3,2.4-3,4.4-5.2,5.9
			c-2.2,1.5-4.6,2.6-7.4,3.4c-2.8,0.7-5.6,1.1-8.5,1.1h-31.6V4022H1313.8z M1312,4048.4c2.6,0,4.7-0.6,6.3-1.8
			c1.6-1.2,2.5-3.2,2.5-5.9c0-1.5-0.3-2.8-0.8-3.7c-0.5-1-1.3-1.7-2.2-2.3s-2-0.9-3.2-1.1c-1.2-0.2-2.4-0.3-3.7-0.3h-13.4v15.3H1312
			z M1312.8,4076.1c1.4,0,2.7-0.1,4-0.4c1.3-0.3,2.4-0.7,3.4-1.4c1-0.6,1.8-1.5,2.3-2.6c0.6-1.1,0.9-2.5,0.9-4.2
			c0-3.3-0.9-5.7-2.8-7.2c-1.9-1.4-4.4-2.1-7.5-2.1h-15.6v17.9H1312.8z"/>
		<path fill="#A29E5E" d="M1356.6,4040v8.8h0.2c0.6-1.5,1.4-2.8,2.5-4.1c1-1.2,2.2-2.3,3.6-3.2c1.3-0.9,2.8-1.6,4.3-2.1
			c1.5-0.5,3.1-0.7,4.8-0.7c0.9,0,1.8,0.2,2.8,0.5v12.1c-0.6-0.1-1.3-0.2-2.2-0.3c-0.9-0.1-1.7-0.1-2.5-0.1c-2.4,0-4.4,0.4-6,1.2
			c-1.6,0.8-3,1.9-4,3.2s-1.7,3-2.1,4.8c-0.4,1.8-0.6,3.8-0.6,5.9v21.3h-13V4040H1356.6z"/>
		<path fill="#A29E5E" d="M1377.4,4054.5c0.2-3,0.9-5.6,2.3-7.6c1.3-2,3-3.6,5.1-4.8c2.1-1.2,4.4-2.1,7-2.6c2.6-0.5,5.2-0.8,7.8-0.8
			c2.4,0,4.8,0.2,7.2,0.5c2.4,0.3,4.7,1,6.7,2c2,1,3.7,2.3,4.9,4.1c1.3,1.7,1.9,4,1.9,6.9v24.6c0,2.1,0.1,4.2,0.4,6.1
			c0.2,1.9,0.7,3.4,1.3,4.4h-13.2c-0.2-0.7-0.4-1.5-0.6-2.2c-0.2-0.8-0.3-1.5-0.3-2.3c-2.1,2.1-4.5,3.6-7.3,4.5
			c-2.8,0.9-5.7,1.3-8.6,1.3c-2.3,0-4.4-0.3-6.3-0.8c-1.9-0.5-3.7-1.4-5.1-2.6c-1.5-1.2-2.6-2.6-3.4-4.4c-0.8-1.8-1.2-3.9-1.2-6.3
			c0-2.7,0.5-4.9,1.4-6.6c0.9-1.7,2.2-3.1,3.7-4.2c1.5-1,3.2-1.8,5.1-2.3c1.9-0.5,3.9-0.9,5.8-1.2c1.9-0.3,3.9-0.5,5.8-0.7
			c1.9-0.2,3.6-0.5,5-0.8c1.5-0.4,2.6-0.9,3.5-1.6c0.9-0.7,1.2-1.7,1.2-3.1c0-1.4-0.2-2.5-0.7-3.3c-0.5-0.8-1.1-1.5-1.8-1.9
			c-0.8-0.5-1.6-0.8-2.6-0.9c-1-0.2-2.1-0.2-3.2-0.2c-2.6,0-4.6,0.5-6,1.6c-1.5,1.1-2.3,2.9-2.6,5.5H1377.4z M1407.3,4064.1
			c-0.5,0.5-1.2,0.9-2.1,1.1c-0.8,0.3-1.7,0.5-2.6,0.7c-0.9,0.2-1.9,0.3-3,0.5c-1,0.1-2.1,0.3-3.1,0.5c-1,0.2-1.9,0.4-2.9,0.7
			c-0.9,0.3-1.8,0.7-2.5,1.2c-0.7,0.5-1.3,1.2-1.7,2c-0.4,0.8-0.6,1.8-0.6,3c0,1.2,0.2,2.1,0.6,2.9c0.4,0.8,1,1.4,1.7,1.9
			c0.7,0.5,1.6,0.8,2.6,1c1,0.2,2,0.3,3,0.3c2.6,0,4.5-0.4,5.9-1.3c1.4-0.9,2.4-1.9,3.1-3.1c0.7-1.2,1.1-2.4,1.2-3.6
			c0.2-1.2,0.2-2.2,0.2-2.9V4064.1z"/>
		<path fill="#A29E5E" d="M1462.1,4081.2c-1.5,2.6-3.5,4.4-6,5.5c-2.5,1.1-5.3,1.7-8.4,1.7c-3.5,0-6.6-0.7-9.3-2.1
			c-2.7-1.4-4.9-3.2-6.6-5.6c-1.7-2.3-3-5-3.9-8.1c-0.9-3-1.3-6.2-1.3-9.5c0-3.2,0.4-6.2,1.3-9.2c0.9-3,2.2-5.6,3.9-7.8
			c1.7-2.3,3.9-4.1,6.5-5.4c2.6-1.4,5.7-2.1,9.1-2.1c2.8,0,5.5,0.6,8,1.8c2.5,1.2,4.5,2.9,6,5.3h0.2V4022h13v65.2h-12.3v-6H1462.1z
			 M1461.5,4057.8c-0.4-1.8-1-3.4-1.9-4.8c-0.9-1.4-2-2.5-3.4-3.3c-1.4-0.9-3.2-1.3-5.3-1.3c-2.1,0-3.9,0.4-5.4,1.3
			c-1.5,0.9-2.6,2-3.5,3.4c-0.9,1.4-1.5,3-1.9,4.8c-0.4,1.8-0.6,3.7-0.6,5.6c0,1.8,0.2,3.7,0.6,5.5c0.4,1.8,1.1,3.5,2.1,4.9
			c0.9,1.4,2.1,2.6,3.6,3.5c1.4,0.9,3.2,1.3,5.2,1.3c2.1,0,3.9-0.4,5.3-1.3c1.4-0.9,2.6-2,3.4-3.4c0.9-1.4,1.5-3.1,1.8-4.9
			c0.4-1.8,0.5-3.7,0.5-5.7C1462.1,4061.5,1461.9,4059.6,1461.5,4057.8z"/>
		<path fill="#A29E5E" d="M1553.3,4022v12.1h-31.5v15.1h27.3v11.1h-27.3v26.9h-14.3V4022H1553.3z"/>
		<path fill="#A29E5E" d="M1570.8,4040v8.8h0.2c0.6-1.5,1.4-2.8,2.5-4.1c1-1.2,2.2-2.3,3.6-3.2c1.3-0.9,2.8-1.6,4.3-2.1
			c1.5-0.5,3.1-0.7,4.8-0.7c0.9,0,1.8,0.2,2.8,0.5v12.1c-0.6-0.1-1.3-0.2-2.2-0.3c-0.9-0.1-1.7-0.1-2.5-0.1c-2.4,0-4.4,0.4-6,1.2
			c-1.6,0.8-3,1.9-4,3.2s-1.7,3-2.1,4.8c-0.4,1.8-0.6,3.8-0.6,5.9v21.3h-13V4040H1570.8z"/>
		<path fill="#A29E5E" d="M1590.8,4053.4c1.2-3.1,2.8-5.7,4.9-7.9c2.1-2.2,4.7-3.8,7.7-5c3-1.2,6.3-1.8,10-1.8
			c3.7,0,7.1,0.6,10.1,1.8c3,1.2,5.6,2.9,7.7,5c2.1,2.2,3.8,4.8,4.9,7.9c1.2,3.1,1.7,6.5,1.7,10.3c0,3.8-0.6,7.2-1.7,10.2
			c-1.2,3-2.8,5.6-4.9,7.8c-2.1,2.2-4.7,3.8-7.7,5s-6.4,1.7-10.1,1.7c-3.7,0-7.1-0.6-10-1.7c-3-1.2-5.5-2.8-7.7-5
			c-2.1-2.2-3.8-4.8-4.9-7.8c-1.2-3-1.7-6.5-1.7-10.2C1589,4059.9,1589.6,4056.4,1590.8,4053.4z M1602.6,4069.2
			c0.4,1.8,1,3.4,1.9,4.8c0.9,1.4,2.1,2.6,3.5,3.4c1.5,0.9,3.3,1.3,5.5,1.3s4-0.4,5.5-1.3c1.5-0.9,2.7-2,3.6-3.4
			c0.9-1.4,1.5-3,1.9-4.8c0.4-1.8,0.5-3.6,0.5-5.5c0-1.9-0.2-3.7-0.5-5.6s-1-3.4-1.9-4.8c-0.9-1.4-2.1-2.5-3.6-3.4
			c-1.5-0.9-3.3-1.3-5.5-1.3s-4,0.4-5.5,1.3c-1.5,0.9-2.6,2-3.5,3.4c-0.9,1.4-1.5,3-1.9,4.8s-0.5,3.7-0.5,5.6
			C1602,4065.5,1602.2,4067.4,1602.6,4069.2z"/>
		<path fill="#A29E5E" d="M1655.4,4075.5c0.6,1,1.3,1.8,2.2,2.5c0.9,0.6,2,1.1,3.2,1.4c1.2,0.3,2.4,0.5,3.7,0.5
			c0.9,0,1.9-0.1,2.9-0.3c1-0.2,1.9-0.5,2.7-1c0.8-0.5,1.5-1.1,2.1-1.8c0.5-0.8,0.8-1.7,0.8-2.9c0-1.9-1.3-3.4-3.9-4.4
			c-2.6-1-6.2-1.9-10.8-2.9c-1.9-0.4-3.7-0.9-5.5-1.5c-1.8-0.6-3.4-1.3-4.8-2.3c-1.4-0.9-2.5-2.1-3.4-3.6c-0.9-1.4-1.3-3.2-1.3-5.3
			c0-3,0.6-5.5,1.8-7.5c1.2-1.9,2.8-3.5,4.7-4.6c1.9-1.1,4.1-1.9,6.6-2.4c2.4-0.5,4.9-0.7,7.5-0.7c2.6,0,5,0.2,7.4,0.7
			c2.4,0.5,4.6,1.3,6.4,2.5c1.9,1.2,3.5,2.7,4.7,4.6c1.2,1.9,2,4.3,2.2,7.3h-12.3c-0.2-2.5-1.1-4.2-2.8-5.1c-1.7-0.9-3.7-1.3-6-1.3
			c-0.7,0-1.5,0-2.4,0.1c-0.9,0.1-1.6,0.3-2.3,0.6c-0.7,0.3-1.3,0.7-1.8,1.3c-0.5,0.6-0.7,1.4-0.7,2.3c0,1.2,0.4,2.1,1.3,2.8
			c0.9,0.7,2,1.3,3.3,1.8c1.4,0.5,2.9,0.9,4.7,1.2c1.8,0.4,3.6,0.8,5.4,1.2c1.9,0.4,3.7,0.9,5.5,1.6c1.8,0.6,3.4,1.4,4.8,2.4
			c1.4,1,2.5,2.3,3.4,3.7c0.9,1.5,1.3,3.3,1.3,5.5c0,3.1-0.6,5.7-1.9,7.8c-1.2,2.1-2.9,3.8-4.9,5.1c-2,1.3-4.3,2.2-6.9,2.7
			c-2.6,0.5-5.2,0.8-7.9,0.8c-2.7,0-5.4-0.3-8-0.8c-2.6-0.5-4.9-1.5-7-2.7c-2-1.3-3.7-3-5-5.1c-1.3-2.1-2-4.7-2.1-7.9h12.3
			C1654.5,4073.3,1654.8,4074.5,1655.4,4075.5z"/>
		<path fill="#A29E5E" d="M1717.7,4040v8.7h-9.5v23.4c0,2.2,0.4,3.7,1.1,4.4c0.7,0.7,2.2,1.1,4.4,1.1c0.7,0,1.4,0,2.1-0.1
			c0.7-0.1,1.3-0.2,1.9-0.3v10c-1.1,0.2-2.3,0.3-3.7,0.4c-1.3,0.1-2.6,0.1-3.9,0.1c-2,0-3.9-0.1-5.7-0.4c-1.8-0.3-3.4-0.8-4.8-1.6
			c-1.4-0.8-2.5-1.9-3.2-3.4c-0.8-1.5-1.2-3.4-1.2-5.8v-27.9h-7.9v-8.7h7.9v-14.2h13v14.2H1717.7z"/>
	</g>
</g>
</svg>
